{"glyphs":{":":{"x_min":0,"x_max":238,"ha":238,"o":"m 58 87 q 58 167 126 167 q 157 167 173 154 q 189 142 200 107 q 203 91 202 77 q 202 39 182 17 q 163 -5 134 -5 q 117 -5 102 2 q 58 21 58 87 z m 58 519 q 58 599 126 599 q 158 599 174 586 q 189 574 200 539 q 203 523 202 509 q 202 471 182 449 q 163 427 134 427 q 117 427 102 434 q 58 453 58 519 z"},"$":{"x_min":0,"x_max":419,"ha":419,"o":"m 228 670 q 198 638 198 596 q 198 552 229 521 l 269 495 q 289 482 301 468 q 313 455 330 424 l 347 394 l 358 374 l 363 363 l 375 330 l 380 285 l 382 271 l 387 238 q 390 220 390 203 q 390 192 389 187 l 382 151 l 376 124 q 370 103 358 84 q 345 66 322 46 q 306 33 294 26 q 282 18 270 14 l 265 13 l 244 9 q 228 6 226 2 q 224 -2 224 -23 l 221 -34 q 216 -45 204 -41 q 193 -36 193 -12 q 192 -9 191 -8 q 187 -3 180 1 q 177 3 170 4 q 163 5 129 5 q 120 6 110 10 q 101 15 83 27 q 45 54 33 90 l 30 104 q 29 109 29 119 q 29 144 40 158 q 52 173 72 175 q 98 175 110 168 q 123 160 130 140 l 133 103 q 136 71 151 60 q 166 50 176 48 q 185 46 190 50 l 194 70 q 203 127 203 153 q 203 177 196 192 q 189 206 167 228 l 139 256 l 121 274 l 112 284 l 105 291 l 87 312 q 64 338 56 354 q 49 370 41 407 l 38 427 q 35 451 35 473 q 35 483 35 488 q 35 523 38 541 q 40 559 45 579 q 60 629 76 652 q 92 675 128 698 q 136 703 148 709 q 159 715 167 718 l 195 728 q 197 730 198 735 q 200 742 202 749 l 205 758 q 208 765 216 761 q 227 754 227 739 q 227 730 226 725 q 229 723 237 721 q 245 719 253 719 q 270 717 279 712 l 303 697 l 325 682 l 335 674 q 361 648 365 631 q 369 614 369 605 q 369 575 336 560 q 324 556 311 557 q 263 561 263 617 q 263 661 228 670 z m 189 546 q 199 542 199 551 q 200 566 198 579 q 196 592 196 598 q 196 605 196 608 q 196 620 198 632 q 199 644 199 648 q 199 658 196 669 q 192 680 182 674 l 171 666 q 151 643 154 615 l 156 609 q 166 578 174 564 q 182 549 189 546 z m 225 170 l 224 131 l 224 103 l 224 94 l 230 53 q 266 63 266 104 q 266 114 263 125 q 256 148 248 159 q 235 177 225 170 z"},"?":{"x_min":0,"x_max":390,"ha":390,"o":"m 22 611 q 22 630 28 644 q 35 659 49 674 q 74 701 92 710 q 110 720 147 724 l 184 724 q 222 720 244 711 q 267 702 294 679 q 338 639 351 575 l 354 535 q 354 479 334 441 q 315 403 267 365 q 261 361 242 349 q 230 341 218 334 l 196 322 l 190 318 q 171 299 171 283 q 171 279 175 257 l 175 244 q 170 220 146 220 q 141 220 138 221 q 124 227 112 247 q 105 260 105 280 q 105 299 111 320 q 117 341 134 374 l 144 394 l 152 410 l 166 447 q 171 463 172 482 q 173 500 173 541 l 173 558 l 172 596 q 172 630 170 644 q 167 657 160 664 q 153 671 144 671 q 133 671 128 663 q 124 653 124 643 q 124 629 130 602 q 133 590 124 570 l 118 560 q 100 534 76 534 q 65 534 48 544 q 21 561 21 600 q 22 607 22 611 z m 81 104 l 86 122 q 106 171 151 171 q 157 170 161 170 q 176 168 192 160 q 208 151 216 139 q 224 127 227 110 q 230 92 230 76 q 230 42 195 15 q 174 0 152 0 q 110 0 89 47 l 83 65 q 81 73 81 89 q 81 99 81 104 z"},"a":{"x_min":0,"x_max":426,"ha":426,"o":"m 25 188 q 25 204 25 218 q 25 231 27 245 q 36 310 52 336 q 69 363 114 387 l 132 396 l 158 408 l 174 414 q 212 431 223 441 q 250 467 250 494 q 250 544 212 544 q 199 544 194 538 q 189 532 181 509 l 170 476 q 162 450 141 441 q 127 435 114 435 q 94 435 79 447 q 64 459 64 477 q 63 483 63 488 q 63 492 64 500 q 66 507 67 511 q 83 580 175 593 q 185 594 190 594 q 199 595 206 594 q 261 594 288 582 q 314 571 347 533 q 369 508 378 480 q 387 453 387 407 l 387 401 l 386 359 l 386 353 l 387 297 l 386 236 l 386 220 l 386 176 l 386 159 l 387 115 q 387 67 388 61 q 389 54 401 36 l 404 25 q 404 15 396 10 q 389 4 365 -2 q 361 -4 349 -4 q 334 -4 323 -2 l 315 -1 l 292 3 l 259 9 q 252 15 245 25 l 238 31 q 232 34 228 34 q 225 34 193 9 q 188 5 184 3 q 172 -3 155 -3 q 148 -4 144 -4 q 96 -4 63 34 q 27 76 27 148 l 25 175 z m 192 183 l 193 164 l 193 154 l 194 128 l 195 120 l 197 105 q 200 83 218 85 q 229 87 229 96 l 229 124 l 229 161 l 229 196 l 229 231 l 229 235 l 229 265 l 229 269 l 229 301 q 229 311 231 320 q 233 329 235 336 q 241 354 241 363 q 241 367 239 371 q 234 382 222 382 q 215 382 211 378 q 207 374 204 368 q 201 361 199 345 l 195 318 l 194 310 l 191 277 l 191 253 l 191 243 l 190 213 l 190 208 z"},"L":{"x_min":0,"x_max":379,"ha":379,"o":"m 18 11 q 14 17 14 25 q 14 32 19 45 q 23 52 27 58 q 28 59 40 73 q 39 77 38 91 q 37 105 37 130 l 35 245 q 35 344 35 431 q 35 518 36 594 l 37 605 l 38 619 q 38 634 38 639 q 38 652 35 658 q 33 663 18 680 q 13 687 13 694 q 13 701 18 710 q 24 719 36 722 q 49 724 70 724 q 88 724 100 724 l 147 723 l 194 725 l 216 725 l 230 722 q 244 718 244 702 q 244 691 235 679 l 222 663 q 222 661 222 659 q 222 647 222 634 l 222 613 l 222 608 l 220 591 q 222 583 224 553 q 226 523 226 493 l 224 448 l 224 405 l 225 394 l 227 359 l 227 303 l 228 247 l 228 137 q 228 123 227 105 q 226 87 227 83 q 231 64 248 67 l 267 74 q 285 86 291 99 l 298 128 q 305 160 328 168 q 336 171 343 171 q 358 171 368 161 q 378 151 378 135 q 378 118 376 109 l 357 36 l 352 17 l 350 10 q 348 -2 338 -7 q 327 -12 319 -12 q 305 -12 267 0 l 231 2 l 193 3 l 154 3 l 115 3 l 95 3 l 77 2 l 51 1 l 46 0 q 26 0 18 11 z"},"3":{"x_min":0,"x_max":475,"ha":475,"o":"m 15 106 q 15 129 24 143 q 32 157 54 164 q 62 166 67 166 q 91 166 111 146 q 121 136 125 122 q 129 108 133 70 q 134 63 140 58 q 146 52 155 48 l 163 45 q 175 42 185 42 q 203 42 214 56 q 226 71 240 111 l 250 149 q 253 169 253 187 q 253 213 246 242 q 240 270 230 292 q 221 313 211 324 q 185 356 162 356 q 151 356 136 350 q 122 344 113 344 q 102 344 84 354 q 67 365 67 390 q 67 403 73 415 l 82 428 q 97 445 125 445 q 142 445 168 439 q 200 432 226 470 q 251 509 251 583 l 250 601 l 248 624 q 248 642 244 652 q 239 663 230 672 q 216 683 204 683 q 188 683 180 670 q 176 665 174 658 q 171 651 168 638 q 165 626 165 598 q 167 587 154 572 q 140 557 109 557 q 100 557 88 559 q 76 561 64 577 q 52 593 52 616 q 52 626 53 631 q 54 636 59 647 q 78 688 140 713 q 176 728 233 728 q 240 728 247 728 q 253 727 272 723 q 336 709 370 676 q 403 644 412 586 q 414 578 414 561 q 414 549 411 537 q 404 504 388 480 q 371 455 349 445 q 335 438 325 435 q 322 434 319 433 q 314 431 314 425 q 314 420 317 414 q 320 408 337 401 l 351 396 l 361 393 q 375 388 388 372 q 401 356 413 336 q 433 300 439 243 l 439 194 q 439 155 432 141 q 421 124 413 111 l 403 96 l 390 76 q 373 52 358 42 q 344 32 298 12 l 265 0 q 224 -12 196 -12 q 179 -12 154 -7 l 139 -4 l 125 -1 q 96 6 73 21 l 59 31 q 38 48 26 66 q 15 85 15 106 z"},";":{"x_min":0,"x_max":250,"ha":250,"o":"m 70 519 q 70 599 138 599 q 169 599 185 586 q 201 573 211 539 q 215 524 214 509 q 214 470 194 448 q 175 427 145 427 q 128 427 113 434 q 70 452 70 519 z m 58 -90 q 54 -80 64 -68 q 74 -57 94 -43 l 101 -35 q 108 -20 108 -6 q 108 14 81 47 q 71 60 68 74 q 65 88 65 94 q 65 113 75 131 q 96 169 134 169 q 149 169 163 161 q 192 145 202 128 q 212 112 212 78 l 211 62 q 208 35 196 10 q 172 -38 155 -60 q 138 -82 121 -90 q 96 -103 80 -103 q 62 -103 58 -90 z"},"J":{"x_min":0,"x_max":255,"ha":255,"o":"m -47 -77 l -46 -68 q -37 -34 4 -34 q 24 -34 32 -35 q 36 -36 42 -37 q 47 -33 47 -28 l 44 10 l 42 47 l 39 84 l 37 122 l 35 149 l 35 160 l 39 229 l 38 268 l 38 272 l 38 307 l 38 311 l 37 345 l 37 359 l 37 384 l 37 394 l 38 422 l 38 436 l 38 460 l 37 508 l 36 534 l 39 580 l 40 602 l 41 626 q 41 650 41 657 q 41 672 39 676 q 38 678 28 689 q 23 694 23 702 q 23 715 35 721 q 38 722 50 723 q 61 724 69 724 q 85 724 97 724 l 110 723 l 144 724 l 193 725 l 204 724 q 232 724 232 702 q 232 695 230 688 q 227 681 216 667 l 215 620 l 216 591 l 216 575 l 217 548 l 218 530 l 219 510 l 220 485 q 220 472 220 460 q 220 449 221 439 l 221 433 l 219 378 l 218 364 l 218 315 l 218 247 l 218 188 l 218 173 l 216 127 l 217 78 q 217 68 214 56 q 212 43 207 29 q 192 -13 139 -58 q 110 -83 91 -97 q 76 -108 65 -113 q 32 -128 8 -128 q -26 -128 -40 -104 q -47 -93 -47 -77 z"},"V":{"x_min":0,"x_max":407,"ha":407,"o":"m 238 390 q 255 393 264 406 q 274 419 285 454 q 288 465 291 479 q 294 493 294 505 q 294 514 294 518 q 294 545 293 560 q 292 574 286 588 l 269 621 q 256 646 256 670 q 256 715 298 726 q 322 733 337 733 q 357 733 370 717 q 375 711 387 688 q 399 666 399 634 q 399 607 388 560 q 382 536 378 522 q 370 502 366 490 l 362 478 l 348 442 l 332 395 q 314 341 308 316 q 301 291 290 241 l 282 206 l 273 162 l 267 137 l 254 84 q 238 20 228 10 q 219 0 175 0 q 146 0 139 8 q 132 17 120 67 l 110 110 l 107 124 l 102 149 l 96 182 l 93 199 l 86 241 l 84 254 l 75 300 l 75 305 l 63 391 l 56 437 l 43 528 l 42 541 l 39 571 l 37 582 l 33 613 l 28 656 q 27 656 27 657 q 18 669 11 677 l 6 688 q 1 720 49 720 q 59 720 65 719 l 90 717 q 105 717 116 717 q 127 717 133 717 q 143 717 148 717 q 154 717 160 717 q 167 719 170 719 q 176 720 188 720 q 201 720 207 720 q 222 720 230 710 q 237 699 233 686 q 229 677 224 671 q 219 665 211 659 q 209 658 209 652 q 209 646 213 624 l 218 588 l 218 581 l 220 553 l 225 510 l 231 474 l 232 466 l 232 422 q 232 417 233 411 q 234 405 238 390 z"},"7":{"x_min":0,"x_max":475,"ha":475,"o":"m 29 617 q 29 664 60 693 q 92 722 159 730 q 166 730 174 731 q 183 732 188 732 q 226 732 278 712 q 311 699 329 699 q 346 699 371 713 l 385 721 q 388 724 394 724 q 402 724 411 714 q 420 704 420 691 q 420 682 416 673 l 402 647 l 389 620 l 371 580 l 369 575 q 363 559 356 533 q 349 507 344 478 l 343 469 l 337 427 l 334 408 l 329 377 q 327 365 327 349 q 327 335 327 319 q 327 303 328 285 q 328 279 328 274 q 325 256 322 238 q 323 234 324 220 q 324 205 324 190 l 328 140 l 331 116 q 336 78 346 66 q 355 53 382 48 q 391 46 397 31 q 399 27 399 21 q 399 -6 361 -6 l 341 -5 l 329 -5 l 304 -3 l 285 -1 l 243 -1 l 232 -1 l 202 -3 l 190 -3 l 160 -5 l 132 -5 l 116 -6 q 97 -6 89 5 q 78 16 78 29 q 78 42 90 51 q 97 56 116 59 l 127 59 q 133 59 134 66 q 136 74 136 93 l 136 103 l 136 129 l 142 164 q 146 184 146 200 q 146 215 146 232 l 154 274 l 162 307 l 164 316 l 168 329 l 177 357 q 187 386 190 394 q 194 403 210 434 l 232 475 l 239 488 l 244 499 q 273 573 273 609 q 273 650 234 658 q 222 660 216 660 q 197 660 184 644 q 172 629 154 586 l 149 570 q 146 562 142 558 q 132 548 111 544 q 108 543 99 543 q 85 543 67 549 q 29 563 29 617 z"},"S":{"x_min":0,"x_max":366,"ha":366,"o":"m 14 108 q 19 130 35 146 q 51 162 76 162 q 108 162 128 135 q 141 118 148 82 l 150 66 q 152 50 173 46 q 203 40 211 80 q 213 96 206 119 q 199 142 178 180 q 172 189 165 198 q 158 207 143 220 l 125 236 l 115 245 l 92 274 q 58 319 48 342 q 38 366 30 423 q 27 441 26 468 q 25 494 25 496 q 25 511 25 518 q 25 568 33 594 q 41 619 63 652 q 71 664 74 668 q 83 677 87 681 q 104 698 119 707 q 134 716 156 722 q 179 728 201 728 q 214 728 225 725 q 270 712 288 702 q 306 692 319 672 l 331 646 q 334 634 334 623 q 334 583 288 568 q 278 566 273 566 q 259 566 244 575 q 229 584 223 596 q 217 608 211 641 q 209 654 202 661 q 194 668 187 668 q 175 668 170 656 q 166 645 165 637 q 164 629 164 617 q 164 597 181 573 l 227 525 q 237 514 248 498 q 260 483 267 473 l 285 446 q 315 396 328 352 q 340 309 340 249 q 340 179 326 130 q 312 80 286 50 q 257 16 223 0 q 189 -15 149 -15 q 88 -15 50 18 q 13 50 13 93 q 13 103 14 108 z"},"Z":{"x_min":0,"x_max":422,"ha":422,"o":"m 18 17 q 15 23 15 34 q 15 42 18 56 l 29 95 l 38 123 l 53 169 l 74 246 l 123 435 l 133 475 l 134 480 l 147 521 l 152 539 l 159 566 q 162 576 167 588 q 172 599 177 609 l 189 629 q 195 637 193 645 q 193 660 177 660 q 175 660 166 656 q 158 653 151 637 l 150 633 l 143 611 l 138 598 q 128 582 112 574 q 97 565 79 565 q 61 565 47 574 q 24 591 24 619 q 24 645 48 675 l 59 686 q 89 713 140 720 l 186 722 q 251 722 316 722 q 384 719 384 690 q 384 682 382 674 q 377 660 375 652 q 364 620 353 567 l 352 562 l 346 530 l 343 517 l 338 494 l 328 459 l 324 448 l 315 424 l 314 421 l 305 387 l 296 351 l 289 325 l 286 315 l 283 307 l 273 280 l 262 241 l 256 217 l 244 164 q 242 154 240 144 q 239 141 233 126 q 223 98 221 89 q 219 80 222 74 q 229 57 246 62 q 262 65 270 97 l 273 110 l 276 125 q 276 134 288 150 q 309 180 344 180 q 353 180 357 179 q 405 168 405 121 q 405 114 404 104 q 402 95 401 89 q 391 39 339 21 q 287 3 158 3 l 119 1 l 86 -1 l 78 -2 q 49 -2 37 2 q 25 5 18 17 z"},"x":{"x_min":0,"x_max":395,"ha":395,"o":"m 7 63 q 7 89 8 108 q 9 126 16 162 q 24 197 41 232 l 61 269 l 81 305 q 98 335 98 355 q 98 360 96 372 l 89 401 l 88 404 l 83 430 l 75 462 l 73 467 l 64 495 q 57 516 52 524 q 47 532 36 541 l 21 555 q 16 563 16 569 q 16 586 33 591 l 57 595 l 92 592 l 127 591 l 138 592 l 161 593 q 190 593 204 582 q 217 572 224 539 l 225 534 l 231 501 l 240 463 q 248 432 248 425 q 250 419 257 419 q 262 419 266 421 q 271 423 276 431 q 280 439 282 454 q 286 474 265 508 q 244 543 244 565 q 244 581 253 596 q 272 631 312 631 q 324 631 341 626 q 358 620 373 596 q 388 573 388 538 q 388 509 376 476 q 365 443 340 407 l 337 402 l 320 379 l 317 374 l 302 351 q 285 325 285 314 q 285 308 288 298 q 290 288 292 280 l 302 245 l 305 233 l 316 205 l 317 202 l 328 164 l 341 124 l 348 104 l 355 82 q 358 70 362 63 q 364 58 374 45 l 382 35 q 386 31 386 23 q 386 15 380 6 q 373 -3 352 -3 l 331 -2 l 321 -1 l 281 -1 l 252 -2 l 240 -2 q 217 -4 206 4 q 196 13 187 41 l 176 75 l 171 94 l 166 110 l 154 143 l 144 165 l 140 174 q 134 189 131 208 q 131 211 128 212 q 123 214 117 211 q 107 207 102 196 q 98 184 98 157 q 98 140 111 115 q 124 90 157 53 q 169 41 169 0 q 169 -57 92 -57 q 59 -57 33 -24 q 7 10 7 63 z"},")":{"x_min":0,"x_max":364,"ha":364,"o":"m 14 724 q 11 740 24 756 q 33 767 52 767 q 67 767 92 758 q 117 749 136 734 q 155 718 187 680 q 219 645 257 560 q 290 490 298 427 q 306 364 306 327 q 306 305 303 284 q 300 262 294 237 l 288 213 l 282 190 q 274 154 269 140 q 264 126 254 106 l 247 91 l 237 72 q 209 18 165 -27 q 133 -60 112 -75 q 90 -90 80 -92 q 69 -95 64 -95 q 57 -95 54 -95 q 15 -95 15 -55 q 15 -33 23 -23 q 31 -13 57 -8 q 62 -7 70 7 q 77 21 83 37 q 86 48 86 67 l 90 81 q 92 85 94 102 q 95 119 95 134 l 100 230 l 100 243 l 100 249 l 100 263 l 102 312 l 104 344 l 106 364 l 109 413 l 108 417 l 107 438 l 106 442 l 106 471 l 103 504 l 102 516 l 99 537 l 98 540 l 96 587 q 96 602 93 611 l 87 634 l 85 641 l 82 654 l 80 662 q 75 672 67 677 q 52 686 40 694 q 27 702 22 710 q 16 717 14 724 z"},"&":{"x_min":0,"x_max":580,"ha":580,"o":"m 29 244 q 32 276 40 298 q 48 320 68 350 q 77 363 94 380 q 110 396 134 415 l 148 424 l 160 432 l 169 437 q 187 448 187 467 q 187 477 182 498 q 176 519 176 536 q 176 556 186 595 q 202 659 244 684 q 273 701 305 698 q 347 692 376 651 q 394 624 394 595 q 394 589 391 572 q 388 555 380 537 q 373 519 365 509 l 346 488 l 346 482 l 360 450 q 365 441 368 432 q 370 422 371 418 q 379 382 391 386 q 399 387 402 391 q 404 393 414 410 q 421 419 434 425 q 446 431 461 435 q 476 439 486 439 q 509 439 527 423 q 550 402 550 377 q 550 364 542 346 q 530 320 514 312 q 498 305 488 305 q 476 305 450 322 q 446 326 438 326 q 419 326 412 308 q 409 300 411 290 l 413 283 l 420 256 l 431 213 l 450 174 l 469 134 q 472 132 480 132 q 490 132 499 136 q 508 139 520 149 q 526 153 531 148 q 540 139 540 125 q 540 108 522 78 l 515 69 l 513 67 l 492 50 q 488 47 480 38 q 472 29 468 24 q 455 8 442 0 q 429 -9 415 -9 q 389 -9 350 24 l 336 37 l 306 69 q 303 75 293 75 q 288 75 282 72 q 279 70 275 66 q 271 62 262 47 l 255 36 q 238 14 222 4 q 207 -5 185 -5 q 176 -6 172 -6 q 147 -6 126 8 q 104 21 77 54 q 55 82 42 124 q 28 166 28 218 z m 299 544 q 306 531 321 537 q 343 546 343 584 q 343 598 341 607 q 340 611 336 621 q 332 631 322 638 q 317 641 311 641 q 297 641 292 626 q 287 611 287 594 q 287 587 287 581 q 290 570 291 562 q 292 554 299 544 z m 194 239 l 207 193 q 214 172 220 162 q 227 151 237 145 q 244 141 254 146 q 263 150 265 160 q 266 169 263 179 l 252 211 l 251 214 l 238 250 l 234 264 l 228 287 l 220 318 l 219 323 q 214 356 213 358 q 211 365 205 368 q 195 373 190 361 q 186 349 186 338 l 183 305 q 183 283 191 248 z"},"_":{"x_min":0,"x_max":562,"ha":562,"o":"m -7 0 l -7 36 l 569 36 l 569 0 z"},"v":{"x_min":0,"x_max":365,"ha":365,"o":"m 7 552 q 4 558 4 564 q 4 583 14 586 q 25 590 33 590 q 39 590 52 590 q 66 589 87 589 l 114 589 l 142 588 q 164 588 174 580 q 183 572 193 541 l 198 521 l 201 504 l 205 475 l 211 430 q 214 404 221 383 q 223 375 230 372 q 238 368 244 373 q 252 378 256 392 q 261 406 261 437 q 261 457 260 465 q 258 473 252 488 l 250 492 l 237 515 q 234 518 225 543 q 216 568 216 585 q 216 632 259 644 q 269 646 273 646 q 294 646 316 630 q 355 603 355 537 q 355 520 351 496 q 347 471 346 469 q 340 454 337 447 l 335 442 l 322 413 q 310 383 300 350 q 290 316 278 260 l 274 244 l 247 105 q 235 39 223 16 q 211 -6 189 -6 q 185 -6 175 -4 q 155 1 150 10 q 144 18 133 61 l 132 65 l 118 111 q 110 135 102 167 q 91 210 78 271 l 70 306 l 66 326 l 62 340 l 58 356 l 48 397 q 40 429 37 445 q 34 461 31 486 l 29 515 q 29 526 22 536 z"},"O":{"x_min":0,"x_max":494,"ha":494,"o":"m 22 371 l 25 431 q 25 466 26 476 q 28 486 34 506 q 50 573 62 600 q 74 626 102 657 q 118 674 132 686 q 145 697 160 706 q 205 730 243 730 q 250 730 260 729 q 269 728 274 728 l 309 719 q 357 702 387 666 l 392 660 l 407 639 l 420 619 l 425 612 q 428 607 432 598 q 436 590 438 582 l 440 577 l 452 532 l 464 484 l 468 430 l 469 412 l 468 393 l 466 308 l 462 265 l 459 233 l 458 222 q 456 209 452 192 q 448 176 442 158 l 435 138 l 427 118 l 419 98 l 416 93 q 404 72 378 44 q 366 33 358 27 q 350 21 331 12 q 312 3 287 -2 q 262 -6 234 -6 q 192 -6 169 7 q 146 20 106 64 q 75 99 60 133 q 44 167 34 228 l 31 253 l 30 259 l 27 312 z m 226 600 l 225 575 l 226 563 l 226 524 l 226 483 l 227 448 l 226 403 l 226 351 l 226 323 l 222 163 l 223 138 l 224 117 l 227 87 l 232 68 q 239 56 253 56 q 263 56 273 63 q 283 70 283 82 q 283 85 281 91 l 278 102 l 276 113 q 274 123 273 132 q 272 141 272 164 l 271 214 l 271 389 l 272 452 l 273 499 q 273 529 272 554 q 272 580 271 601 q 271 642 265 654 q 259 667 240 675 l 225 678 q 209 676 212 655 l 220 637 q 226 623 226 600 z"},"(":{"x_min":0,"x_max":364,"ha":364,"o":"m 58 300 q 58 335 58 366 q 59 398 68 433 l 74 457 l 80 480 q 88 516 93 530 q 98 544 108 564 l 115 579 l 125 598 q 153 652 197 697 q 229 730 250 745 q 272 760 288 762 q 303 765 307 765 q 347 765 347 729 q 347 703 340 693 q 332 683 305 678 q 300 677 292 662 q 284 646 280 634 q 276 622 276 603 l 271 589 q 270 582 268 571 q 267 560 267 536 l 262 440 l 262 427 l 262 421 l 262 407 l 260 357 l 258 326 l 256 306 l 253 257 l 254 253 l 255 231 l 256 199 l 259 166 l 260 154 l 263 133 l 264 129 l 266 83 l 269 58 l 275 36 l 277 28 l 280 16 l 282 8 q 287 -2 295 -7 q 310 -16 324 -25 q 349 -41 349 -60 q 349 -73 338 -85 q 327 -97 309 -97 q 295 -97 270 -88 q 245 -79 226 -64 q 207 -48 174 -10 q 161 5 144 34 q 124 68 105 110 q 81 162 71 199 q 58 246 58 300 z"},"C":{"x_min":0,"x_max":413,"ha":413,"o":"m 255 658 q 242 645 240 634 q 237 622 237 578 l 237 563 l 236 521 l 233 463 l 232 435 l 232 418 l 233 373 l 233 234 l 233 203 l 233 187 l 234 160 l 236 130 l 237 77 q 237 59 254 50 q 274 43 284 62 q 289 71 292 91 l 294 113 l 294 122 l 298 135 q 307 158 340 161 q 359 161 372 148 q 384 136 384 112 q 384 98 379 80 q 374 63 358 44 q 342 25 316 12 q 289 -2 269 -4 q 249 -7 241 -7 q 195 -7 152 27 q 138 38 128 50 q 104 75 94 89 q 85 103 74 129 l 65 147 l 59 161 l 48 195 l 46 203 l 38 244 l 29 288 l 29 293 q 25 314 25 343 l 25 358 l 26 394 q 26 445 30 469 q 33 493 44 535 l 50 555 l 55 572 q 78 644 128 686 q 177 727 217 727 q 228 727 239 724 l 245 723 l 264 716 q 273 713 279 713 q 289 713 313 731 q 320 736 329 736 q 332 736 342 733 q 352 730 360 717 q 368 704 373 675 l 382 626 l 387 596 l 390 577 q 391 572 391 562 q 391 557 389 547 q 382 516 353 516 q 345 516 337 521 q 323 530 315 548 l 305 580 l 293 608 q 276 640 255 658 z"},"W":{"x_min":0,"x_max":629,"ha":629,"o":"m 7 688 q 6 692 5 697 q 5 702 5 704 q 5 725 41 725 l 74 721 q 80 720 95 720 q 110 720 119 720 q 132 720 139 720 l 163 721 l 173 721 l 197 722 q 218 722 218 700 q 218 695 217 692 l 210 676 l 204 666 q 204 664 204 662 q 204 652 207 631 l 211 596 l 211 583 l 212 560 l 219 520 l 224 494 l 228 479 q 230 465 230 453 q 230 443 229 437 l 228 433 l 225 416 l 224 400 q 224 389 237 391 q 250 391 260 414 q 270 438 270 487 l 268 508 l 264 537 l 260 566 l 250 628 l 249 636 l 249 641 l 247 655 q 247 669 244 677 q 241 685 239 691 l 234 702 q 228 713 240 720 q 252 728 267 728 q 282 728 317 720 l 330 717 q 339 717 343 717 q 353 717 374 721 l 377 722 l 405 721 l 437 721 q 455 721 455 698 q 455 693 448 680 q 440 666 438 661 q 435 654 435 645 q 435 630 436 621 q 444 576 449 536 l 455 496 q 458 475 460 462 q 461 449 461 434 l 458 416 l 457 398 q 459 389 468 389 q 475 389 484 398 q 492 407 498 424 l 509 460 q 513 477 518 500 q 522 523 522 536 q 522 567 504 606 l 498 619 l 489 638 l 483 652 q 480 664 480 676 q 480 723 535 733 q 539 734 548 734 q 568 734 590 718 q 604 706 612 684 q 621 663 621 633 q 621 605 614 574 l 602 528 l 596 504 l 592 484 l 578 444 l 568 417 l 564 405 l 548 367 l 540 334 l 534 311 l 532 303 l 528 269 l 517 232 l 514 224 l 507 195 l 503 178 l 498 157 l 496 149 l 484 109 l 471 63 q 459 27 458 15 q 458 6 433 3 l 429 2 l 404 2 q 372 2 362 10 q 352 17 347 50 l 342 80 l 322 185 l 318 209 q 316 221 315 229 q 307 277 305 295 l 302 303 q 299 309 293 305 q 286 297 284 288 q 282 279 282 247 q 282 233 282 225 l 274 204 l 274 183 l 265 148 l 256 113 l 253 99 l 247 82 l 238 52 q 231 33 231 19 q 231 9 211 3 q 205 0 184 0 l 169 0 l 157 0 q 139 0 132 10 q 124 19 116 52 l 106 93 l 104 99 l 94 146 l 94 150 l 88 186 l 86 196 l 74 267 l 71 283 l 67 308 l 66 318 l 62 349 l 61 355 l 57 385 l 51 417 l 39 493 l 35 519 l 30 548 l 25 604 q 25 640 24 647 q 23 653 20 659 z"},"A":{"x_min":0,"x_max":453,"ha":453,"o":"m 7 19 q 4 33 13 45 q 22 57 39 71 q 41 73 44 101 q 47 129 48 137 l 49 145 l 57 203 l 64 244 l 68 268 l 69 272 l 79 352 l 89 418 l 111 506 l 116 528 l 120 550 l 123 561 l 129 596 q 132 613 133 619 q 134 625 134 635 q 134 647 113 658 q 92 669 92 683 q 92 690 98 706 q 103 721 138 721 l 177 721 q 196 721 207 720 q 218 719 220 719 l 250 722 l 262 723 q 298 723 309 714 q 320 704 331 658 l 344 607 q 346 597 352 565 q 357 533 362 503 l 368 459 l 371 434 l 374 405 l 375 393 l 383 350 l 387 323 l 389 309 l 391 292 l 393 259 l 394 256 l 402 210 l 403 206 l 409 159 l 413 131 l 415 118 l 417 102 q 419 78 421 73 q 423 66 434 52 l 442 39 q 446 32 446 23 q 446 17 443 12 q 437 2 427 1 l 401 -1 l 391 -1 l 332 1 l 296 0 l 277 -1 l 260 -1 l 230 0 q 221 0 215 8 q 209 16 211 26 q 212 33 218 41 q 223 49 237 60 l 242 64 q 248 67 248 79 q 248 99 222 129 q 212 140 202 141 q 191 142 183 143 q 175 144 171 144 q 135 144 124 124 q 114 103 114 85 q 114 74 119 67 l 140 51 l 151 41 q 157 33 157 24 q 157 8 139 1 l 130 -1 l 111 0 l 100 1 l 81 1 l 58 1 l 51 1 q 27 1 19 4 q 11 7 7 19 z m 224 247 l 221 266 l 220 275 l 215 302 l 204 376 l 200 411 q 200 437 197 445 q 194 453 186 455 q 181 457 177 454 q 176 453 175 452 l 165 422 l 159 401 l 156 389 l 147 331 l 139 276 l 136 241 q 136 220 144 210 q 152 200 173 195 q 185 193 189 193 q 224 193 224 247 z"},"f":{"x_min":0,"x_max":244,"ha":244,"o":"m 18 544 q 15 552 15 558 q 15 571 33 585 l 46 593 l 50 595 q 53 604 54 615 l 57 633 q 74 716 136 726 q 152 728 159 728 q 190 728 208 710 q 227 692 227 669 q 227 656 219 643 l 210 633 q 197 620 183 620 q 169 620 147 633 q 140 637 134 635 q 114 631 120 613 q 124 599 147 591 q 152 589 162 589 q 177 589 191 591 q 210 591 216 586 q 223 580 223 562 q 223 543 221 539 q 218 534 198 522 q 198 519 198 517 q 198 506 198 494 l 199 483 l 200 464 l 201 450 l 201 434 l 201 428 l 201 387 l 201 376 l 203 296 l 203 273 l 203 252 l 202 231 l 201 208 l 203 156 l 203 104 q 203 84 204 66 q 204 49 216 35 l 224 25 q 226 21 222 15 q 218 9 206 6 q 194 3 180 2 q 167 1 152 1 l 98 1 q 49 1 35 4 q 21 8 21 20 q 21 28 23 31 q 25 34 37 46 q 40 48 40 62 l 40 101 l 40 113 l 39 156 l 38 212 q 38 276 38 340 q 39 404 40 467 l 40 507 l 22 537 l 20 540 z"},"Q":{"x_min":0,"x_max":501,"ha":501,"o":"m 226 -21 q 233 -37 244 -41 q 246 -42 276 -48 l 307 -66 q 322 -75 334 -75 q 364 -75 373 -26 q 375 -21 382 -18 q 390 -15 400 -13 l 409 -12 q 424 -12 434 -22 q 445 -31 445 -46 q 445 -53 444 -56 q 435 -94 388 -118 q 342 -142 265 -142 l 261 -142 l 200 -140 l 138 -140 l 108 -143 l 77 -143 q 65 -141 59 -132 q 53 -123 56 -113 q 57 -109 58 -107 q 62 -103 63 -102 l 71 -93 l 80 -84 l 106 -56 l 108 -54 l 131 -26 q 137 -18 144 -10 q 152 -1 152 6 q 152 12 143 22 q 127 39 116 50 q 104 62 100 67 q 96 72 83 91 q 59 126 49 159 q 39 192 30 264 l 28 280 l 28 285 l 26 334 l 25 354 l 22 388 q 22 407 22 430 q 23 452 26 476 l 36 520 l 38 524 l 51 564 q 68 615 89 642 q 110 670 158 700 q 205 729 245 729 q 269 729 302 720 q 317 716 335 708 q 353 699 364 692 q 375 684 386 673 l 388 670 l 404 649 l 421 627 q 435 607 442 588 q 449 568 462 517 q 475 466 475 434 l 475 429 l 473 380 l 473 374 l 474 327 q 474 289 471 256 q 468 223 461 200 q 441 136 430 110 q 419 84 404 65 q 382 38 354 20 q 327 3 308 -4 q 288 -11 252 -11 q 248 -11 240 -14 q 237 -15 226 -21 z m 226 580 l 226 539 l 226 526 l 228 478 l 228 474 l 227 425 l 226 409 l 227 383 l 226 378 l 224 267 l 224 213 l 224 187 l 224 157 l 224 134 q 224 54 255 54 q 261 54 269 57 q 295 68 289 81 l 277 131 q 275 144 274 159 q 274 174 274 184 l 275 231 l 275 238 l 275 260 l 274 282 l 274 316 l 274 348 l 276 446 l 276 483 l 276 514 l 276 552 l 275 583 q 275 625 272 640 q 268 656 258 666 q 248 677 234 677 q 218 677 213 665 l 221 633 q 226 614 226 580 z"},"w":{"x_min":0,"x_max":574,"ha":574,"o":"m 444 363 q 454 368 460 375 q 473 389 473 411 q 473 446 470 462 q 466 477 446 515 q 441 524 438 532 q 432 547 432 561 q 432 593 450 616 q 469 638 493 638 q 497 638 505 636 l 525 627 q 549 613 558 591 q 567 569 567 525 q 567 500 551 455 l 548 446 l 532 406 l 517 359 l 497 299 l 495 292 l 493 284 l 461 151 l 455 127 l 443 81 q 428 25 422 14 q 415 4 386 -3 q 381 -4 376 -5 q 370 -5 368 -5 q 340 -5 333 27 l 327 53 l 326 58 l 318 96 l 316 108 l 311 135 l 310 140 l 302 174 l 301 182 l 295 213 l 291 232 l 287 251 l 287 255 l 285 277 q 285 285 279 302 l 266 272 l 264 263 l 258 243 l 256 233 l 251 213 l 249 207 l 241 177 l 240 171 l 233 141 l 228 116 l 225 105 l 222 92 l 216 69 l 212 54 l 206 32 q 199 8 192 3 q 185 -2 161 -2 q 139 -2 132 2 q 125 7 120 27 l 112 56 l 106 82 l 99 113 l 91 147 l 86 168 l 82 186 l 75 225 l 66 268 l 64 282 l 61 301 l 56 340 l 54 348 l 48 376 l 43 400 l 40 413 l 32 448 q 30 458 27 473 q 24 488 24 507 l 23 520 q 23 524 13 547 l 7 564 q 4 577 15 586 q 26 596 51 596 l 114 593 q 161 587 168 581 q 175 575 191 524 l 194 511 l 195 505 l 201 467 l 205 435 l 206 424 q 209 400 214 390 q 219 379 228 375 q 240 370 244 378 q 247 386 249 399 l 248 428 q 248 497 244 514 q 241 532 225 545 l 216 551 q 210 556 210 564 q 210 573 220 581 q 229 589 247 589 l 277 587 l 284 587 l 306 587 l 339 588 q 378 588 392 571 q 406 554 414 492 l 415 475 l 418 445 l 419 429 q 423 391 444 363 z"},"-":{"x_min":0,"x_max":337,"ha":337,"o":"m 36 356 q 36 394 68 415 q 83 424 103 424 q 225 424 251 420 q 277 416 291 394 q 302 377 302 361 q 302 325 262 302 q 250 296 234 294 q 219 292 175 292 l 108 291 q 36 291 36 356 z"},"E":{"x_min":0,"x_max":387,"ha":387,"o":"m 18 701 q 21 715 28 718 q 36 721 62 721 l 68 720 l 96 720 l 115 719 l 131 720 l 151 720 l 179 721 l 227 721 q 231 722 235 722 q 243 723 273 730 q 285 733 295 733 q 314 733 324 720 q 333 707 338 675 l 346 640 l 355 604 q 357 587 345 574 q 333 562 316 564 q 299 564 284 584 l 269 623 q 265 634 255 649 l 245 661 q 234 670 225 670 q 215 670 212 662 l 212 645 l 213 603 l 215 520 l 215 498 l 215 478 q 215 463 221 450 q 227 438 237 444 q 247 450 259 470 q 265 480 289 480 q 310 480 318 474 q 325 469 332 445 l 334 439 l 341 415 l 346 400 l 351 384 q 357 367 357 354 q 357 318 323 318 q 303 318 291 330 q 276 345 276 378 q 276 382 268 386 q 260 389 246 389 q 228 389 222 380 q 216 371 216 346 l 217 316 l 217 300 l 217 286 l 217 277 l 214 245 l 214 203 l 216 160 l 217 118 l 215 78 q 212 62 229 57 q 236 55 244 58 q 252 62 263 75 q 266 80 270 86 q 275 93 279 102 l 285 115 l 294 149 q 296 155 308 162 q 321 169 332 169 q 358 169 363 145 l 364 127 l 360 100 l 357 36 q 357 -11 322 -11 q 303 -11 267 1 l 222 3 l 177 4 l 131 3 l 92 2 l 86 2 l 41 1 q 35 0 30 6 q 24 13 24 25 q 24 33 26 40 q 28 48 35 63 q 37 68 38 102 q 39 135 39 242 l 35 392 l 35 408 l 34 429 l 34 448 l 34 467 l 34 477 l 32 504 l 35 545 l 32 582 l 33 616 q 33 622 34 630 q 35 637 35 639 q 35 649 20 678 q 17 684 17 692 q 17 698 18 701 z"},"s":{"x_min":0,"x_max":328,"ha":328,"o":"m 18 101 q 29 136 80 136 q 99 134 112 120 q 124 105 127 78 l 132 56 q 137 41 153 41 q 161 41 166 45 q 172 48 178 60 q 184 71 184 82 q 184 94 180 104 q 176 113 163 128 l 126 172 l 111 189 l 88 215 q 59 248 48 266 q 38 284 29 319 l 24 338 l 21 385 q 21 399 21 408 q 21 417 21 421 q 21 445 24 460 q 27 474 41 505 q 76 584 152 598 q 163 600 181 600 q 193 600 199 599 q 243 591 256 582 q 268 574 283 540 q 289 525 289 513 q 289 497 278 484 q 260 466 240 466 q 215 466 198 494 l 192 509 l 190 515 l 187 528 l 184 538 q 178 549 165 549 q 155 549 148 541 q 142 533 142 519 q 142 510 146 496 q 150 483 155 476 q 160 470 178 454 l 191 444 l 212 426 l 216 422 l 242 395 q 266 370 276 354 q 286 337 294 308 q 297 297 299 288 q 301 279 301 271 l 303 252 l 303 244 l 303 212 l 304 179 l 303 172 l 301 153 q 288 81 256 41 q 225 1 180 -7 q 166 -9 154 -10 q 143 -12 128 -12 q 85 -12 55 12 q 34 29 25 47 q 16 65 16 85 q 16 91 18 101 z"},"l":{"x_min":0,"x_max":243,"ha":243,"o":"m 22 690 q 20 698 20 701 q 20 724 70 724 l 90 722 l 109 721 q 111 721 124 722 q 138 722 152 722 l 170 721 q 184 719 190 712 q 195 704 197 681 l 197 677 l 198 645 q 198 638 198 632 q 198 627 201 606 l 199 567 q 199 558 200 539 q 200 520 200 501 l 199 475 l 202 449 l 201 401 l 201 394 l 201 351 l 203 254 l 205 213 l 206 205 l 203 170 l 202 126 l 203 94 q 203 68 205 61 q 207 56 221 35 q 225 30 225 23 q 225 2 202 2 l 184 0 l 172 0 l 135 1 q 124 1 114 1 q 104 1 88 -2 q 82 -2 74 -3 q 67 -4 61 -4 q 50 -4 40 0 q 31 4 27 14 q 23 23 26 28 l 42 54 l 42 103 l 41 129 l 41 151 l 39 202 l 38 234 l 38 244 l 38 253 l 40 286 l 40 295 l 39 330 l 38 367 l 37 380 l 39 431 l 40 482 l 40 509 l 41 533 l 40 586 l 43 637 q 43 658 39 666 z"},"8":{"x_min":0,"x_max":475,"ha":475,"o":"m 19 179 q 19 192 20 206 q 21 219 24 232 l 30 256 q 37 279 47 298 q 57 316 66 326 q 80 341 94 356 q 100 362 105 365 q 107 366 106 369 q 104 376 92 395 l 88 401 l 70 423 q 56 442 48 471 q 45 481 44 488 q 43 495 43 515 q 43 590 64 632 q 85 675 136 705 q 160 718 186 724 q 212 731 236 731 q 259 731 295 722 q 331 712 356 690 q 389 662 398 627 q 408 596 408 569 q 408 543 394 512 l 366 455 l 365 452 q 366 445 369 438 l 406 396 q 431 368 442 330 q 454 293 454 236 q 454 153 416 95 q 359 8 259 -7 q 238 -10 220 -10 q 190 -10 161 -1 q 116 13 98 26 q 79 38 55 71 q 40 91 32 108 q 25 126 21 154 z m 335 531 q 345 553 345 571 q 345 598 324 637 q 315 656 294 670 q 272 684 251 684 q 174 684 174 610 q 174 554 239 507 q 261 491 282 491 q 315 491 335 531 z m 166 57 q 201 44 226 44 q 256 44 286 65 q 330 98 330 148 q 330 181 309 216 q 288 250 245 282 l 217 300 q 185 318 164 318 q 147 318 132 306 q 118 294 99 266 q 89 250 84 234 q 78 217 78 197 q 78 156 90 129 q 117 75 166 57 z"},"e":{"x_min":0,"x_max":396,"ha":396,"o":"m 22 293 q 22 313 22 330 q 23 346 27 374 l 31 395 l 35 414 q 42 453 62 491 q 81 529 109 556 q 132 578 156 588 q 181 598 214 598 q 311 598 352 529 q 360 516 364 504 q 369 492 373 470 q 377 447 377 431 q 377 401 362 390 q 346 380 307 380 l 298 381 l 263 385 q 241 387 236 387 q 214 387 208 374 q 203 360 203 316 l 202 263 l 202 248 l 202 209 l 200 104 l 201 93 q 206 65 216 56 q 225 46 236 46 q 248 46 257 56 q 266 67 269 87 l 267 122 q 265 139 278 155 l 286 163 q 302 176 320 176 q 353 176 365 136 q 368 127 368 115 q 368 94 358 73 q 352 60 347 54 q 334 38 306 19 q 278 0 242 -6 q 222 -9 205 -9 q 174 -9 148 3 q 123 15 96 43 q 82 59 80 61 q 78 63 72 73 q 56 97 49 115 q 42 133 36 167 l 30 200 l 28 209 l 27 218 l 25 251 l 23 283 z m 241 440 q 246 448 246 457 l 246 463 l 247 497 q 247 524 243 534 q 239 544 228 546 q 209 549 205 533 l 203 510 l 203 481 q 203 460 206 452 q 208 443 216 436 q 221 433 226 433 q 235 433 241 440 z"},"b":{"x_min":0,"x_max":453,"ha":453,"o":"m 14 711 q 22 726 51 726 q 61 726 67 725 q 82 725 91 725 q 106 725 121 725 q 136 728 143 729 l 152 729 q 175 726 183 714 q 191 702 191 666 l 191 617 q 188 593 188 582 q 188 570 192 566 q 196 562 205 562 l 244 584 q 253 589 263 592 q 273 595 287 595 q 295 596 299 596 q 342 596 370 563 q 399 530 414 461 l 420 431 l 421 422 q 423 412 424 397 q 426 382 426 354 l 428 301 l 428 285 q 428 267 428 258 q 428 219 424 181 q 420 143 414 115 q 407 87 397 67 q 363 0 305 0 q 265 0 246 10 q 227 21 223 24 q 217 28 214 32 q 211 35 195 16 q 179 -2 162 -2 q 152 -2 132 0 q 111 3 98 3 q 89 3 85 3 l 41 1 q 31 0 25 4 q 14 12 14 23 q 14 39 35 61 l 35 102 l 36 142 l 33 268 l 33 278 l 35 336 q 34 351 32 374 q 31 396 31 439 l 34 491 l 35 514 l 36 546 l 36 576 l 36 602 l 36 658 q 35 660 34 662 q 29 669 18 684 q 12 690 12 700 q 12 703 12 706 q 14 710 14 711 z m 197 427 l 200 372 l 200 331 l 200 319 l 202 266 l 201 239 l 200 231 l 201 195 l 204 163 l 202 146 l 200 126 l 201 101 q 201 80 221 84 q 238 87 240 105 l 240 109 l 241 150 l 241 179 l 241 194 l 240 237 l 243 279 l 243 283 l 240 327 l 240 354 l 239 372 l 237 409 l 237 419 l 235 445 q 235 471 232 481 q 228 491 216 499 q 210 502 205 502 q 196 502 193 494 q 190 486 191 478 l 197 454 z"},"%":{"x_min":0,"x_max":608,"ha":608,"o":"m 103 22 q 102 26 107 38 q 116 58 123 73 l 139 108 l 147 123 l 155 140 l 173 173 l 189 203 l 196 217 l 205 235 l 241 307 q 247 319 252 330 q 258 340 265 351 l 275 369 l 291 395 l 320 457 l 351 518 l 371 554 l 384 578 l 411 628 l 417 638 l 448 699 q 456 714 475 717 q 499 717 499 691 q 497 676 493 669 l 480 639 l 477 633 l 458 596 l 453 585 l 439 561 l 401 491 l 376 443 l 371 431 l 354 395 l 325 338 l 321 330 l 294 283 l 285 266 l 265 227 l 248 194 l 236 170 l 208 114 l 188 80 l 174 43 l 164 25 q 153 10 144 6 q 136 1 128 1 q 109 1 103 22 z m 29 553 l 31 578 q 43 649 74 685 q 106 721 151 721 q 170 721 190 715 q 224 705 247 672 q 270 640 281 581 q 285 555 286 546 q 286 537 286 526 q 286 456 262 412 q 237 367 198 354 q 172 346 153 346 q 91 346 56 414 q 49 429 42 454 q 36 479 34 498 q 31 516 30 528 q 29 540 29 553 z m 323 182 l 324 210 q 324 282 358 324 q 393 367 443 367 l 461 367 q 504 367 539 322 q 551 308 558 287 q 566 266 572 232 q 579 197 579 170 q 579 141 573 114 q 559 51 527 24 q 491 -9 454 -9 q 441 -9 421 -4 l 401 5 q 368 22 350 56 q 333 90 325 160 z m 144 590 l 144 509 l 144 504 l 147 454 l 148 443 l 148 418 l 149 408 q 149 391 158 382 q 166 372 175 375 q 179 376 181 379 q 181 380 182 381 l 176 411 q 174 421 174 436 q 173 451 173 463 l 173 488 l 173 516 l 173 540 l 172 569 l 171 606 l 171 642 l 170 657 q 162 700 140 695 q 131 693 131 683 q 131 675 133 671 l 140 653 q 144 640 144 590 z m 434 258 l 433 232 l 432 209 l 432 158 l 435 122 l 435 116 l 435 95 l 436 68 l 436 61 l 438 43 q 438 32 446 25 q 454 18 462 20 q 473 24 471 30 l 467 57 q 464 75 464 113 l 462 225 l 461 258 l 462 288 q 462 338 428 335 l 432 305 q 434 289 434 278 q 434 268 434 258 z"},"m":{"x_min":0,"x_max":649,"ha":649,"o":"m 22 577 q 27 592 44 592 q 56 592 64 591 l 94 590 l 103 591 l 123 592 l 147 593 q 163 593 170 589 q 177 585 188 566 l 195 561 q 200 559 205 558 q 209 558 216 563 q 230 575 242 585 q 249 591 258 594 q 266 598 281 598 q 288 599 291 599 q 326 599 355 576 l 387 549 q 395 549 403 552 l 439 579 q 453 591 480 597 l 502 599 q 554 599 581 565 q 608 531 608 458 l 609 417 l 609 410 l 608 382 q 608 363 609 316 q 610 269 610 249 l 613 208 l 614 196 q 615 188 615 183 q 615 171 612 140 q 609 108 609 91 q 609 74 612 62 q 616 50 626 36 q 629 31 629 26 q 629 12 614 3 q 609 -1 595 -1 q 593 -1 575 1 l 535 3 l 503 2 q 465 2 455 12 q 442 25 442 68 l 442 72 l 442 159 l 442 167 l 440 227 l 440 231 l 440 295 l 440 304 l 439 362 l 439 430 q 439 444 439 450 q 439 468 439 486 q 437 504 427 509 q 421 512 414 510 q 406 508 402 502 q 399 495 399 485 l 400 471 l 401 456 l 401 368 l 401 363 l 402 323 l 402 310 l 402 234 l 402 214 l 403 197 l 404 175 l 406 160 l 403 123 l 403 114 q 403 72 405 64 q 407 57 423 39 q 427 35 427 27 q 427 17 421 9 q 415 1 383 1 l 343 2 l 331 1 l 301 0 q 269 0 258 8 q 248 17 241 53 q 240 58 239 72 q 238 87 238 104 l 238 134 l 238 143 l 237 158 l 235 183 l 237 229 l 237 235 l 236 275 l 235 320 l 235 417 l 237 444 l 237 455 q 237 493 227 503 q 222 508 214 508 q 203 508 197 497 l 194 487 l 199 457 q 199 447 199 439 l 199 373 l 199 359 l 201 209 l 203 121 q 203 84 205 77 q 207 70 222 44 l 230 27 q 234 16 227 8 q 220 -1 206 -1 l 172 2 q 167 3 158 3 q 148 3 142 3 l 101 3 l 84 1 l 50 -2 q 23 -2 26 26 q 26 32 27 35 q 30 43 41 56 l 40 82 l 39 109 l 38 138 l 38 146 l 38 160 l 38 218 l 38 234 l 37 255 l 36 288 l 36 293 l 38 324 l 37 368 l 38 411 l 38 423 l 38 453 l 38 459 l 37 495 q 37 505 37 510 q 37 532 35 538 q 34 542 23 556 q 19 560 19 566 q 19 571 22 577 z"},",":{"x_min":0,"x_max":226,"ha":226,"o":"m 36 -90 q 32 -80 42 -68 q 52 -57 72 -43 l 79 -35 q 86 -20 86 -6 q 86 14 59 47 q 49 60 46 74 q 43 88 43 94 q 43 113 53 131 q 74 169 112 169 q 127 169 141 161 q 170 145 180 128 q 190 112 190 78 l 189 62 q 186 35 174 10 q 150 -38 133 -60 q 116 -82 99 -90 q 74 -103 58 -103 q 40 -103 36 -90 z"},"n":{"x_min":0,"x_max":442,"ha":442,"o":"m 199 497 q 191 484 191 477 q 191 470 199 444 l 199 385 l 200 349 l 200 319 l 199 307 l 197 289 l 200 252 l 201 248 l 200 214 l 201 197 l 203 165 l 203 152 l 203 139 l 202 108 q 202 74 207 63 l 208 60 l 219 39 q 224 31 226 21 q 230 2 207 2 l 189 0 l 185 0 l 71 0 l 46 -1 q 20 -1 20 20 q 20 37 39 57 q 40 58 40 62 q 40 72 39 84 l 38 100 l 37 125 l 37 146 l 37 167 l 38 209 l 39 250 l 39 292 l 39 298 l 36 323 l 36 327 l 36 414 l 36 423 l 36 443 l 35 456 l 34 473 l 31 535 q 32 541 27 549 q 22 557 14 567 q 10 571 14 577 q 26 590 65 590 l 90 589 l 98 589 l 130 590 l 152 590 q 170 590 175 584 q 176 583 187 562 q 195 547 205 549 l 227 568 q 244 581 262 586 q 280 590 283 591 q 289 592 300 592 q 346 592 375 554 q 404 515 404 444 l 405 397 l 405 391 l 405 381 l 403 324 l 403 316 l 403 256 l 405 121 q 405 71 406 62 q 407 54 416 32 l 420 24 q 428 10 402 1 q 398 -1 387 -2 q 376 -3 374 -3 q 360 -3 350 -1 q 340 1 322 2 q 304 3 299 3 l 271 0 q 263 -2 256 15 q 249 32 246 48 q 242 65 242 82 q 242 92 242 99 l 242 117 l 244 145 l 244 149 l 242 190 l 242 197 l 243 235 l 243 239 l 240 283 l 240 290 l 240 332 q 240 340 239 354 q 238 368 237 382 l 240 416 l 240 424 q 240 462 230 478 q 221 495 199 497 z"},"h":{"x_min":0,"x_max":451,"ha":451,"o":"m 199 556 q 224 558 259 585 q 267 591 290 594 l 306 595 q 360 595 395 535 q 403 521 406 503 q 410 485 410 457 l 409 438 l 408 410 l 408 398 l 408 392 l 409 360 l 409 356 l 409 325 l 409 314 l 410 289 l 412 255 l 412 250 l 410 211 l 411 158 l 411 91 q 411 80 411 75 q 411 70 411 65 q 409 59 409 57 q 409 55 409 53 q 411 47 424 30 q 429 23 426 15 q 422 4 414 1 q 406 -2 386 -2 l 375 -1 l 359 1 l 331 1 l 302 -1 q 269 -1 256 11 q 243 23 243 60 l 241 100 l 241 123 l 241 147 l 241 171 l 242 194 l 241 243 l 241 254 l 241 292 l 241 326 l 242 342 l 243 366 l 244 390 q 244 392 244 404 q 243 416 243 427 l 242 444 q 242 471 234 485 q 225 499 212 501 q 200 503 197 492 q 194 481 194 477 q 194 472 196 460 q 199 448 201 438 l 200 398 l 200 392 l 202 357 l 201 317 l 201 299 l 201 285 l 201 276 l 203 252 l 201 171 l 201 158 l 201 131 l 202 91 q 202 61 205 53 q 208 45 226 32 q 234 27 231 17 q 225 -3 197 -3 q 191 -3 184 -2 q 177 -1 173 -1 q 158 2 131 2 l 88 0 l 56 0 l 32 2 q 19 4 19 20 q 19 26 22 32 q 23 36 38 48 l 39 91 l 39 118 l 39 135 l 39 140 l 37 180 l 37 190 l 36 223 l 36 254 l 36 268 l 37 291 l 38 309 l 36 350 l 36 392 l 36 411 l 37 428 l 36 463 l 36 508 l 39 578 l 40 596 l 38 638 q 38 652 36 662 q 35 672 32 680 l 23 707 q 19 713 26 718 q 33 724 43 727 l 86 725 q 108 725 122 725 q 135 725 141 725 q 151 725 155 725 q 162 725 172 727 q 178 728 189 712 q 194 704 196 691 q 198 678 198 647 l 197 612 l 197 600 q 198 589 198 576 q 199 564 199 556 z"},"z":{"x_min":0,"x_max":379,"ha":379,"o":"m 22 25 q 21 28 21 36 q 21 45 27 69 l 39 110 l 41 116 l 51 152 l 52 158 l 66 200 l 81 247 l 89 268 l 98 295 l 107 321 l 115 341 l 127 372 l 133 387 l 135 392 l 146 432 q 148 439 153 452 q 158 466 163 475 q 174 501 174 516 q 174 526 169 531 q 165 535 160 535 q 155 535 152 532 q 141 521 133 488 q 131 480 121 472 q 111 463 104 459 q 89 451 71 451 q 63 451 55 454 q 28 465 28 495 q 28 505 31 519 l 36 531 q 48 562 76 576 q 104 591 157 591 q 181 591 211 588 l 251 591 l 291 594 q 341 594 341 558 q 341 544 333 518 l 322 479 l 320 468 l 315 439 l 314 436 l 302 396 l 292 353 l 291 349 l 278 312 l 265 276 l 253 243 l 251 237 l 241 209 l 238 201 l 228 175 l 226 169 l 217 140 q 203 88 203 77 q 203 71 206 66 q 214 56 225 63 q 237 72 244 86 q 251 99 258 127 q 259 131 262 134 q 267 138 279 144 q 291 150 304 150 q 326 150 344 128 q 355 114 355 95 q 355 61 321 28 q 303 11 286 5 q 270 -1 237 -1 l 145 4 l 99 4 l 53 0 l 42 2 q 28 7 22 25 z"},"B":{"x_min":0,"x_max":496,"ha":496,"o":"m 345 426 l 359 418 l 366 414 l 392 398 q 421 381 437 358 q 453 336 462 299 l 469 257 l 469 199 q 469 187 469 182 q 469 159 465 143 q 445 64 390 32 q 336 0 221 0 l 199 1 l 165 3 q 148 3 132 2 q 116 2 79 -1 l 52 -4 q 44 -5 41 -5 q 19 -5 15 20 q 13 35 16 40 q 18 45 34 58 q 38 62 40 68 q 42 75 42 93 q 42 119 39 148 q 36 177 34 196 l 33 203 l 32 240 l 30 287 l 30 332 l 30 359 l 30 419 l 28 512 q 27 612 27 633 q 27 649 28 655 l 15 676 l 12 684 q 10 696 10 699 q 10 713 23 717 q 36 721 71 721 l 77 721 l 120 722 l 125 722 l 168 721 l 215 722 l 245 724 l 265 726 q 278 727 306 722 l 326 718 q 368 706 393 686 q 418 666 435 632 q 456 591 456 559 q 456 523 429 484 q 406 450 379 440 l 376 439 l 363 435 q 356 433 345 426 z m 212 563 q 212 541 212 524 q 212 507 213 494 q 213 487 211 475 l 206 451 q 205 445 212 441 q 219 437 224 438 q 248 438 260 481 q 262 486 263 500 q 264 513 264 537 l 264 579 q 264 611 258 630 q 251 650 236 666 q 229 674 220 674 q 212 674 209 668 l 204 654 l 208 624 z m 216 295 l 217 252 l 217 222 l 217 209 l 216 167 l 218 123 l 213 92 q 208 76 210 63 q 213 51 225 49 q 238 47 247 59 q 256 71 264 103 q 267 113 268 122 q 270 131 270 153 l 271 176 l 271 231 l 268 281 l 263 330 q 263 356 254 368 q 244 381 227 385 q 200 390 206 359 l 214 339 z"},"K":{"x_min":0,"x_max":501,"ha":501,"o":"m 218 444 q 212 433 212 423 l 216 396 l 216 259 l 220 168 l 215 112 l 215 81 q 215 63 218 56 q 220 51 233 37 q 238 33 237 18 q 234 -1 209 -1 q 199 -1 193 0 l 162 2 l 141 3 l 132 3 l 127 2 l 95 -1 l 60 -1 l 36 2 q 26 3 21 10 q 16 16 16 25 q 16 27 18 33 q 19 38 29 49 l 39 65 l 36 101 l 38 138 l 39 158 l 39 175 l 38 184 l 34 251 q 34 259 34 264 q 34 272 34 276 q 34 284 34 288 q 34 296 34 300 q 34 307 34 311 q 34 318 34 322 q 34 348 34 372 q 33 396 33 417 q 33 429 33 435 l 33 440 l 31 458 l 36 502 l 34 546 l 34 590 l 34 595 l 37 626 q 38 634 38 639 q 38 647 38 649 q 38 661 33 668 q 25 676 21 680 q 17 684 17 693 q 17 699 19 706 q 21 713 30 716 q 38 719 64 719 l 80 718 l 95 717 l 139 716 l 183 717 q 207 717 219 715 q 231 713 233 700 q 234 690 231 683 q 228 676 214 665 q 213 664 213 650 q 213 636 213 618 l 212 571 l 208 530 q 208 519 215 512 q 222 506 234 508 q 242 509 258 519 q 275 529 286 542 q 296 554 303 570 q 310 585 315 608 l 322 636 l 326 655 q 328 663 330 668 q 333 675 339 685 q 358 714 394 721 q 408 724 421 724 q 448 724 466 712 q 485 699 489 683 q 493 667 493 657 q 493 629 474 614 q 454 598 421 598 q 413 599 401 599 q 384 599 379 591 q 374 583 374 560 q 375 549 377 543 q 378 539 388 511 l 391 504 l 402 473 l 408 455 l 414 435 l 430 379 q 446 307 452 265 l 454 250 l 458 207 l 463 149 l 463 141 l 462 118 l 462 111 q 462 76 466 66 q 469 57 485 40 q 490 35 490 25 q 490 19 488 12 q 486 5 476 1 q 465 -3 435 -3 l 420 -2 l 394 -1 l 352 0 l 322 -2 l 293 -3 q 273 -3 266 0 q 258 3 255 13 q 252 23 255 30 q 257 35 272 54 q 279 63 281 80 l 277 119 l 275 183 l 273 211 l 271 248 l 265 313 l 254 376 q 247 415 241 427 q 235 439 218 444 z"},"R":{"x_min":0,"x_max":499,"ha":499,"o":"m 358 275 q 371 260 401 252 q 413 250 426 236 q 438 222 449 195 l 457 173 q 463 152 463 129 q 463 113 458 86 q 456 78 462 66 q 467 53 482 35 l 485 28 q 485 9 475 5 q 465 1 418 1 l 378 1 l 323 3 q 305 11 296 26 q 286 40 282 68 l 281 72 l 276 168 q 276 203 268 217 q 260 231 243 233 q 236 234 230 231 q 223 228 223 224 l 227 186 l 222 113 q 221 103 221 89 q 221 72 226 64 l 240 48 q 244 44 247 36 q 250 29 250 25 q 250 13 236 5 q 227 1 218 1 q 211 1 174 2 q 136 4 110 4 q 92 4 76 4 q 59 3 40 0 q 30 -1 23 5 q 16 11 18 18 l 25 40 l 35 62 l 38 68 l 37 105 l 36 118 l 36 140 l 37 176 l 37 194 l 37 212 l 36 217 l 35 249 l 34 393 l 34 399 l 32 437 l 34 527 l 34 551 l 34 572 l 33 596 l 32 616 l 33 641 q 33 659 31 664 q 29 670 17 682 q 13 685 13 693 q 13 707 22 714 q 32 721 42 721 l 47 722 l 82 721 q 95 721 110 721 q 125 721 141 722 q 151 722 157 722 l 227 726 l 235 726 l 265 726 q 357 726 408 678 q 458 629 471 534 l 474 494 q 474 414 454 370 q 434 325 386 293 l 367 280 z m 223 576 l 222 538 l 224 464 l 223 443 l 223 428 l 223 406 l 223 392 l 224 355 l 217 314 q 225 293 239 300 l 249 308 q 262 323 267 336 q 272 349 272 380 l 274 432 l 274 437 q 274 476 272 502 q 270 529 269 551 l 268 606 q 268 636 264 646 q 259 657 243 669 q 235 676 227 676 q 218 676 213 667 l 209 653 l 222 615 q 223 611 223 600 q 223 590 223 576 z"},"T":{"x_min":0,"x_max":369,"ha":369,"o":"m -7 620 l 6 683 l 9 710 q 9 721 26 729 q 29 730 37 730 q 41 730 53 728 l 79 718 q 80 717 108 717 q 126 717 139 717 l 245 717 q 256 717 261 717 q 286 717 292 719 q 296 720 316 734 q 322 736 327 736 q 330 736 340 734 q 350 731 355 724 l 362 674 l 370 647 l 372 639 q 375 625 375 615 q 375 581 348 581 q 341 581 337 582 q 318 586 313 596 q 308 607 308 640 q 308 657 300 665 q 292 673 279 671 q 271 669 269 666 q 267 662 267 643 q 267 625 267 611 l 269 556 q 269 504 270 466 q 271 428 272 392 l 271 357 l 270 343 l 274 294 l 274 245 l 273 221 l 272 200 l 272 196 l 274 155 l 274 85 q 274 70 276 66 q 278 62 291 52 q 296 48 299 40 q 302 32 302 25 q 302 14 296 6 q 290 -1 283 -1 l 209 3 l 169 2 l 134 1 l 128 1 l 98 0 l 88 0 q 73 -2 67 14 q 58 33 90 63 q 93 66 95 76 q 97 87 97 118 l 97 138 l 97 161 l 96 184 l 93 232 l 96 286 l 96 295 l 96 341 l 95 403 l 94 451 l 94 458 l 95 505 l 94 554 q 94 579 94 600 q 95 620 99 650 l 99 663 q 97 675 86 675 q 78 677 70 672 q 62 666 60 658 q 58 651 58 630 q 58 602 47 588 q 36 574 17 579 q -7 585 -7 620 z"},"P":{"x_min":0,"x_max":465,"ha":465,"o":"m 14 694 q 14 723 60 723 q 65 723 81 721 l 125 719 l 128 720 l 168 722 l 173 722 l 215 723 q 236 723 258 722 q 280 722 312 712 q 343 702 371 682 q 404 657 421 631 q 438 605 449 558 q 454 538 456 512 q 458 486 458 457 q 458 407 444 368 q 430 330 404 300 q 374 265 343 251 q 312 237 265 237 l 253 237 q 236 239 224 217 q 223 215 220 206 q 218 198 218 176 l 218 138 l 220 93 q 220 76 222 69 q 224 63 232 52 q 247 31 247 19 q 247 8 236 2 l 199 -1 l 168 -3 l 161 -3 l 150 -2 l 123 0 l 91 -2 l 85 -2 l 59 -3 q 38 -3 30 2 q 22 6 22 21 q 22 32 24 37 q 26 43 37 54 q 40 57 40 66 q 40 75 40 85 q 39 95 39 106 q 39 113 39 116 l 39 123 l 38 155 l 38 176 l 38 194 l 38 202 l 39 233 l 39 271 l 38 287 l 37 310 q 36 313 38 326 q 39 340 39 358 l 37 408 l 37 459 l 37 472 l 37 497 l 38 508 l 37 535 l 37 578 l 36 611 l 36 650 l 23 671 q 14 686 14 694 z m 216 576 l 218 535 l 217 477 l 220 451 q 220 436 219 420 q 218 403 218 399 l 218 357 l 218 353 l 213 309 q 212 302 219 297 q 226 292 236 294 q 254 298 257 320 l 258 330 l 261 373 q 261 445 262 490 q 264 535 264 540 l 261 599 q 261 633 255 650 q 249 666 238 674 q 232 677 227 677 q 220 677 216 673 l 209 663 l 215 619 z"},"t":{"x_min":0,"x_max":249,"ha":249,"o":"m 18 562 q 19 567 25 573 q 31 579 45 587 q 52 591 64 596 q 77 600 88 602 q 99 605 112 623 q 129 646 140 682 l 144 700 q 145 706 151 712 q 157 718 164 723 q 177 732 192 734 q 210 734 222 722 q 234 710 231 692 q 228 670 215 656 l 194 627 q 185 613 203 596 q 215 584 237 578 q 243 576 243 566 q 243 564 240 550 q 237 536 214 525 l 202 521 l 204 493 l 204 466 l 204 461 l 206 438 q 206 437 204 422 q 203 406 203 380 l 205 323 q 205 298 205 285 q 205 272 205 266 l 204 251 l 202 236 l 204 205 q 205 197 206 190 q 206 182 206 176 l 204 136 l 204 95 q 204 67 206 61 q 208 54 223 38 l 229 27 q 235 -2 194 -2 q 183 -2 172 0 q 161 2 134 2 l 94 0 l 55 -2 q 40 -2 31 6 q 22 14 24 25 q 25 32 29 40 q 33 47 42 58 q 44 60 44 70 q 44 80 44 94 l 44 109 l 42 131 l 43 167 l 45 210 l 45 220 l 45 226 l 43 272 l 43 286 l 43 323 l 43 336 l 44 368 l 44 385 l 44 412 l 44 435 l 43 456 l 44 486 l 48 514 l 49 517 q 50 520 47 524 q 43 530 32 540 q 16 554 18 562 z"},"M":{"x_min":0,"x_max":527,"ha":527,"o":"m 11 30 l 36 82 q 37 84 37 108 q 37 123 37 134 l 37 343 l 38 378 l 40 422 l 40 429 l 40 460 l 40 469 l 42 500 l 40 539 l 38 573 l 38 578 l 42 608 l 42 615 q 42 647 38 658 q 34 670 15 687 q 12 690 12 695 q 12 706 25 713 q 30 717 53 717 l 68 717 l 83 718 q 111 718 122 713 q 132 708 154 681 l 173 658 l 179 650 l 187 638 l 201 619 l 224 586 l 235 571 q 259 542 274 542 q 289 542 311 576 l 334 611 l 346 627 l 360 644 l 374 662 l 378 667 l 381 671 l 394 691 q 411 718 442 718 l 453 718 l 469 718 q 506 718 506 695 q 506 692 504 684 q 503 681 500 676 q 492 665 485 655 q 485 652 485 635 q 485 618 485 597 l 485 589 l 484 540 l 486 483 l 486 456 l 487 437 l 487 405 l 487 391 l 490 345 q 490 335 490 330 q 490 320 490 315 q 490 306 490 301 q 490 292 490 288 q 490 280 490 276 q 490 268 490 264 q 490 244 490 222 q 489 201 489 177 q 489 166 489 161 l 487 127 l 487 122 l 487 91 q 487 75 489 66 q 491 56 498 40 l 505 29 q 510 22 506 16 q 501 9 491 4 q 488 2 480 0 q 472 -1 451 -1 l 438 0 l 412 3 l 372 1 l 360 0 l 317 -1 q 287 -1 284 10 q 280 22 280 24 q 280 35 304 59 q 306 61 306 70 q 306 80 306 95 l 305 119 l 304 132 q 304 136 305 146 q 306 157 306 170 l 303 197 l 303 352 q 303 374 303 397 q 304 405 308 417 l 314 430 q 320 440 320 450 q 320 455 317 458 q 312 465 304 461 q 301 460 298 457 q 291 449 277 427 l 258 397 l 253 389 q 225 340 203 340 q 185 340 153 375 l 140 389 l 136 394 q 132 401 124 404 q 119 406 116 404 q 112 401 112 393 q 113 379 114 363 q 114 347 114 337 l 115 282 l 112 124 l 112 115 q 112 96 118 86 q 123 76 144 57 q 152 50 160 38 q 163 32 163 26 q 163 6 139 0 l 116 0 l 27 1 q 11 8 11 30 z"},"g":{"x_min":0,"x_max":460,"ha":460,"o":"m 22 318 l 24 350 l 26 372 l 26 384 q 26 410 31 427 q 33 435 47 465 q 66 506 84 524 q 102 543 150 571 q 167 581 184 586 q 201 592 217 592 l 223 593 l 247 592 l 268 592 l 277 592 q 295 592 304 600 q 312 609 307 622 l 277 647 q 256 664 256 682 q 256 697 270 714 q 275 720 287 728 q 305 737 322 737 q 348 737 374 711 q 391 694 391 663 q 391 652 388 640 l 383 625 l 362 593 q 348 575 350 567 l 379 543 q 434 495 434 341 l 432 326 l 432 319 q 429 290 420 269 l 406 244 q 376 188 364 174 q 353 160 317 140 q 293 126 258 114 l 228 105 l 217 102 l 199 92 q 190 86 187 75 q 182 61 194 54 q 200 50 205 50 q 214 50 234 67 l 243 76 q 264 98 286 109 q 307 120 334 120 q 375 120 402 96 q 428 71 428 32 q 428 27 428 22 q 427 15 424 3 q 413 -38 383 -72 q 371 -88 351 -103 q 298 -141 240 -141 q 217 -141 201 -136 q 164 -125 152 -114 q 139 -103 132 -76 l 93 -74 q 79 -74 64 -64 q 48 -55 31 -27 q 22 -12 22 7 q 22 49 58 82 l 79 96 l 123 119 q 124 128 120 134 l 94 149 q 89 152 82 159 q 76 166 62 186 q 47 206 42 219 q 36 232 32 255 l 31 260 l 27 286 z m 210 510 q 215 493 215 482 q 215 470 215 452 l 212 335 l 212 300 l 212 296 l 211 252 l 211 248 l 213 218 q 213 189 223 176 q 233 162 246 165 q 259 167 259 181 q 261 187 257 194 q 249 214 247 230 q 245 246 245 280 l 247 341 l 250 401 l 250 409 l 251 463 q 251 511 246 524 q 242 536 221 547 q 202 532 207 522 z m 268 -96 q 284 -90 284 -71 q 284 -62 280 -54 q 269 -31 244 -31 q 212 -31 197 -43 q 182 -55 185 -72 q 188 -86 201 -93 q 209 -97 220 -99 q 232 -101 242 -101 q 255 -101 268 -96 z"},"j":{"x_min":0,"x_max":235,"ha":235,"o":"m 25 650 q 24 653 24 660 q 24 683 47 704 q 70 724 109 730 q 116 731 122 731 q 127 731 129 731 q 148 731 157 727 q 183 716 183 686 q 183 672 176 660 q 168 648 138 633 q 109 618 93 618 q 82 618 73 619 l 59 621 l 53 622 l 43 625 q 28 634 25 650 z m 4 -78 q 8 -45 34 -42 q 61 -39 62 -26 q 63 -20 61 -15 q 59 -10 49 6 q 39 22 37 34 q 35 45 35 81 l 35 163 l 35 191 l 36 200 l 37 218 l 38 238 l 38 242 l 37 276 l 36 326 l 36 378 l 37 403 l 36 428 q 36 493 36 511 q 36 529 37 535 q 37 537 36 538 q 35 539 24 553 q 21 556 19 564 q 14 586 35 591 q 39 592 51 592 q 69 592 83 592 l 132 592 q 171 592 183 588 q 195 583 199 566 l 198 412 l 198 404 l 199 376 l 198 340 l 197 333 l 196 302 q 196 279 196 270 q 196 260 196 252 q 196 245 199 228 l 195 199 l 194 170 l 194 166 l 196 115 l 196 107 l 196 60 q 196 26 191 8 q 186 -9 164 -54 l 149 -77 q 135 -96 120 -108 q 105 -120 86 -128 q 68 -135 51 -135 q 10 -135 4 -92 z"},"i":{"x_min":0,"x_max":235,"ha":235,"o":"m 35 638 q 32 644 32 652 q 32 670 49 691 l 61 703 q 86 727 126 727 l 144 726 q 195 720 195 688 q 195 672 183 651 q 177 640 168 633 q 158 626 134 616 q 110 606 92 606 q 84 606 71 610 q 58 614 48 622 q 39 629 35 638 z m 18 26 l 33 58 q 35 60 35 72 q 35 84 36 96 l 35 122 l 35 136 l 34 175 l 33 210 l 33 215 l 33 220 l 36 256 l 37 266 l 37 309 l 37 323 l 37 363 l 38 418 q 40 511 40 526 q 40 536 38 540 q 33 547 28 554 q 23 562 23 570 q 23 586 44 591 l 68 594 l 74 593 l 104 591 q 108 590 118 590 q 122 590 129 591 q 136 592 140 592 q 149 593 163 593 q 186 593 192 584 q 198 574 198 544 l 197 466 l 197 208 l 197 200 l 195 165 l 196 121 l 196 115 l 195 87 q 195 66 198 58 q 200 51 214 37 q 217 32 217 26 q 217 22 214 14 q 206 0 177 0 l 128 5 q 122 6 107 6 q 100 6 92 5 q 84 4 72 2 q 60 1 48 1 q 18 1 18 26 z"},"y":{"x_min":0,"x_max":356,"ha":356,"o":"m 7 -66 q 11 -41 32 -29 q 52 -17 67 -17 q 82 -17 106 -29 q 112 -34 120 -30 q 137 -24 137 -5 q 137 3 134 18 l 126 55 l 116 111 l 111 142 l 108 169 l 77 285 l 70 313 l 62 346 l 55 376 l 48 408 l 36 459 l 34 471 q 25 522 22 529 q 20 536 10 550 l 6 557 q 3 586 29 586 q 40 586 57 583 l 108 590 q 126 592 132 592 q 158 592 172 578 q 185 563 193 526 l 201 489 l 212 409 q 216 379 228 372 q 232 369 240 370 q 248 371 252 380 q 256 389 261 412 q 266 436 266 447 q 266 461 256 482 l 236 517 l 227 534 q 214 561 214 582 q 214 597 222 611 q 241 642 275 642 q 287 642 296 639 q 306 636 321 624 q 336 613 342 590 q 347 568 347 515 q 347 498 337 465 l 332 445 l 327 429 l 320 408 l 315 393 l 304 359 l 294 321 l 289 299 l 280 264 q 279 261 272 224 q 266 186 260 149 l 255 117 l 251 90 q 242 29 224 -13 l 214 -35 q 198 -65 184 -83 q 169 -101 153 -113 q 112 -142 76 -142 q 54 -142 39 -133 q 6 -112 6 -78 q 6 -70 7 -66 z"},".":{"x_min":0,"x_max":216,"ha":216,"o":"m 36 87 q 36 167 104 167 q 135 167 151 154 q 167 142 178 107 q 181 91 180 77 q 180 39 160 17 q 141 -5 112 -5 q 95 -5 80 2 q 36 21 36 87 z"},"p":{"x_min":0,"x_max":446,"ha":446,"o":"m 14 561 q 14 579 30 584 q 46 588 65 588 l 101 588 l 128 589 l 137 590 q 147 592 156 589 q 164 586 169 581 q 173 577 182 561 q 185 556 187 556 q 193 553 195 553 q 198 553 206 560 q 213 566 226 579 q 231 585 240 588 q 249 590 268 590 q 279 590 285 589 q 354 589 393 487 l 399 469 q 408 443 411 425 q 414 407 414 373 l 416 335 l 417 315 l 416 256 l 414 231 l 412 198 q 412 184 410 168 q 408 153 406 140 q 396 74 358 36 q 321 -1 277 -1 q 254 -1 237 9 l 208 26 q 206 28 203 27 q 198 25 195 18 q 193 13 192 0 q 192 -12 192 -25 l 192 -62 l 192 -66 l 196 -108 q 199 -120 181 -131 q 175 -134 149 -134 l 125 -133 l 117 -133 l 85 -135 l 48 -137 q 38 -137 28 -132 q 18 -127 18 -114 q 18 -109 21 -101 l 35 -83 q 39 -79 39 -49 l 38 -14 l 37 7 l 34 57 l 33 129 l 33 176 l 34 201 l 35 252 l 36 274 l 36 285 l 35 346 l 35 350 l 36 383 l 33 495 l 33 532 z m 196 312 l 196 300 l 196 234 l 196 221 l 199 155 l 196 128 l 195 115 q 194 102 196 88 q 199 73 213 76 q 222 78 227 86 q 232 95 232 113 l 234 137 l 235 145 l 238 175 l 238 232 l 239 260 l 239 286 l 239 329 l 239 340 l 238 374 l 237 387 l 236 432 q 236 462 230 474 q 223 487 204 493 q 196 478 194 460 q 192 443 192 402 z"},"X":{"x_min":0,"x_max":455,"ha":455,"o":"m 292 467 q 338 482 338 536 q 338 542 336 558 q 334 573 328 583 q 323 593 301 623 q 295 634 293 642 q 292 646 292 659 q 292 669 293 674 l 296 685 q 310 733 364 733 q 372 733 389 731 q 406 729 420 706 q 434 682 434 630 q 434 599 418 552 q 407 520 381 475 l 372 461 l 358 439 l 349 426 q 343 419 337 396 q 335 382 335 374 q 335 358 339 338 q 343 317 355 271 l 370 222 l 380 192 l 389 170 l 390 167 l 401 107 q 408 75 415 65 l 429 48 l 437 37 q 442 27 442 20 q 442 1 425 -2 l 412 -4 l 363 0 q 345 0 334 0 q 323 0 314 0 q 306 -1 298 -2 q 290 -3 287 -3 q 263 -3 254 4 q 244 12 236 36 l 227 61 l 224 72 l 219 89 l 214 108 l 209 126 l 205 145 l 200 164 l 197 182 l 193 200 l 190 220 l 188 227 l 183 247 q 180 258 180 276 l 178 297 q 177 305 171 308 q 165 312 158 310 q 147 307 140 292 q 133 276 126 236 l 124 223 q 124 199 128 182 q 131 166 146 131 l 165 86 l 186 46 l 188 43 q 190 39 190 33 q 190 28 189 21 q 188 14 184 4 q 176 -24 160 -35 q 145 -46 109 -46 q 77 -46 52 -21 q 27 4 16 54 q 13 68 13 85 q 13 110 24 171 q 29 194 40 223 q 50 252 64 278 q 77 304 100 336 l 113 354 q 124 368 124 403 q 124 410 120 424 q 116 438 113 450 l 109 464 l 101 497 l 96 519 l 94 530 l 90 551 l 89 563 l 77 594 l 76 598 l 69 624 q 65 641 58 652 q 51 663 34 677 q 27 683 27 696 q 27 703 30 711 q 38 725 71 725 l 113 723 l 155 722 l 198 724 q 208 726 222 709 q 241 685 254 637 l 272 552 l 276 530 l 283 502 l 288 485 z"},"*":{"x_min":0,"x_max":383,"ha":383,"o":"m 90 647 l 147 631 l 147 680 q 147 711 166 723 l 177 729 q 187 731 191 731 q 233 731 233 680 l 233 631 l 289 647 q 300 650 306 650 q 318 650 332 636 q 345 623 345 608 q 345 605 343 595 q 338 572 311 565 l 258 551 l 291 502 q 300 488 300 475 q 300 461 290 450 q 277 434 256 434 q 239 434 230 444 l 219 458 l 190 494 l 160 458 l 148 444 q 139 434 123 434 q 102 434 90 448 q 79 461 79 476 q 79 488 88 502 l 121 551 l 68 565 q 54 569 47 576 q 40 582 37 594 q 34 605 34 609 q 34 624 48 637 q 61 650 74 650 q 81 650 90 647 z"},"Y":{"x_min":0,"x_max":399,"ha":399,"o":"m 7 692 q 2 724 41 724 l 62 724 l 71 724 l 88 722 l 101 722 l 142 722 l 177 723 l 183 724 l 212 724 q 234 724 234 702 q 234 695 232 691 l 222 675 q 209 656 209 647 q 209 638 218 614 l 232 562 l 235 545 l 243 526 l 250 515 q 256 506 267 506 q 281 506 291 519 l 297 528 q 302 540 302 550 q 302 565 294 582 q 286 599 265 626 q 256 638 256 667 l 257 681 q 266 713 293 726 q 307 733 322 733 q 346 733 366 714 q 385 696 390 664 q 392 646 392 636 q 392 607 382 574 q 371 542 348 501 q 320 448 314 426 q 308 403 308 347 l 308 296 l 308 287 l 310 226 l 310 194 l 311 166 l 310 138 l 310 107 l 310 74 q 310 59 314 52 q 319 44 335 33 q 342 26 340 18 q 333 -2 303 -2 q 296 -2 288 -1 q 280 0 274 0 q 267 1 243 1 l 191 1 l 173 0 l 166 0 l 132 -1 q 121 -1 111 6 q 101 13 105 24 q 112 39 133 59 q 139 64 139 83 q 139 102 133 165 l 129 274 q 129 283 129 287 q 129 300 129 314 q 127 323 127 326 l 116 362 l 111 377 l 106 396 l 104 402 l 97 432 l 95 438 l 87 468 l 83 485 l 78 503 l 59 550 q 44 583 32 650 l 18 671 q 9 684 7 692 z"},"c":{"x_min":0,"x_max":365,"ha":365,"o":"m 22 289 q 22 314 23 332 q 24 349 28 372 q 42 440 52 468 q 63 495 83 522 q 128 580 184 594 q 196 598 209 600 q 222 602 233 602 q 250 602 262 598 q 305 586 326 556 q 355 511 355 474 q 355 439 330 417 l 320 409 q 306 400 290 400 q 253 400 237 438 q 232 450 232 465 q 233 473 233 477 l 236 497 q 241 516 241 530 q 241 540 235 549 q 229 558 217 551 q 206 545 203 515 l 202 493 l 201 486 l 200 468 l 200 456 l 200 452 l 202 400 q 202 378 203 340 q 204 302 204 285 l 204 260 l 203 229 l 202 197 l 201 171 l 201 165 l 201 129 l 203 87 q 203 61 219 50 q 224 47 230 47 q 242 47 247 57 q 252 67 252 78 q 252 83 251 91 q 250 99 247 111 q 246 119 247 126 q 248 133 254 144 q 265 170 292 173 q 348 178 348 113 l 347 98 q 343 74 330 54 q 317 35 289 15 q 251 -12 210 -12 q 151 -12 99 43 q 55 89 38 172 l 34 195 l 32 205 l 27 241 z"},"!":{"x_min":0,"x_max":288,"ha":288,"o":"m 58 598 l 58 614 q 58 668 72 690 q 86 712 125 725 q 144 730 158 729 q 180 729 194 724 q 209 719 223 708 q 242 692 247 678 q 252 664 252 628 l 251 575 l 248 522 l 239 478 l 238 475 l 231 433 q 227 412 222 390 q 217 369 208 338 q 204 324 202 313 q 199 302 199 285 l 197 232 q 197 226 189 215 q 178 203 157 203 q 152 203 142 205 q 112 214 108 249 l 109 279 q 108 298 108 310 l 107 313 l 97 367 l 86 424 l 77 469 l 75 482 l 66 539 z m 75 77 l 75 94 q 78 129 97 149 q 116 169 145 169 q 207 169 221 101 l 223 84 q 223 46 201 22 q 179 -2 149 -2 q 143 -2 133 0 q 114 5 100 20 q 87 36 78 64 z"},"/":{"x_min":0,"x_max":392,"ha":392,"o":"m 14 18 q 12 24 12 29 q 12 39 19 53 l 32 82 l 33 85 l 44 108 l 54 127 l 73 167 l 77 177 l 91 212 l 96 224 l 110 256 q 112 260 115 269 q 125 299 128 308 l 152 357 l 173 406 l 182 427 l 188 442 l 204 477 q 212 495 218 512 q 225 530 230 549 l 249 582 q 252 587 256 597 q 260 607 263 618 q 278 674 297 698 q 316 722 341 727 q 356 730 366 722 q 376 714 376 700 q 376 690 372 683 l 365 662 l 363 657 l 359 649 l 343 619 l 327 580 l 252 403 l 221 333 l 201 287 l 191 264 l 182 245 l 161 194 l 159 189 l 143 155 l 130 129 l 126 118 l 124 113 l 113 84 l 99 50 q 86 21 76 10 q 66 -1 52 -1 q 23 -1 14 18 z"},"6":{"x_min":0,"x_max":476,"ha":476,"o":"m 30 299 l 30 349 l 30 377 l 32 415 q 32 457 40 490 q 48 523 64 561 q 91 622 125 656 q 196 727 278 727 q 302 727 334 720 q 365 712 387 688 q 409 665 409 639 q 409 623 401 612 q 381 585 359 585 q 352 585 339 590 q 326 596 319 605 q 312 614 301 642 q 290 669 272 669 q 263 669 249 663 l 231 656 q 211 642 206 606 l 205 588 q 205 527 243 527 q 250 527 259 530 l 284 542 q 291 546 303 546 q 330 546 365 520 q 380 509 395 490 q 410 470 422 445 q 431 428 436 408 q 441 389 443 362 l 444 331 l 445 313 q 445 277 445 265 q 445 243 442 227 l 440 219 l 434 189 l 428 150 q 427 141 419 124 q 411 107 390 77 q 365 41 326 19 q 275 -11 235 -11 q 229 -11 222 -10 q 215 -9 211 -9 l 195 -6 q 166 0 151 10 q 136 19 112 46 q 88 72 80 84 q 72 97 62 126 l 53 150 l 45 173 q 34 208 32 224 q 30 239 30 299 z m 220 252 l 221 225 l 221 215 l 220 189 l 220 166 l 220 160 l 221 119 l 222 102 q 226 78 228 70 q 230 63 234 57 q 239 51 247 51 q 256 51 262 58 q 269 71 268 81 l 267 96 l 265 126 l 262 186 l 262 190 l 263 207 l 264 231 l 265 256 l 265 272 l 265 332 l 265 354 l 266 385 l 266 395 l 268 428 l 266 441 q 259 462 252 466 q 245 471 241 471 q 234 471 230 467 q 224 463 224 450 q 225 432 225 414 l 223 371 l 218 326 l 223 289 z"},"r":{"x_min":0,"x_max":334,"ha":334,"o":"m 195 474 q 194 460 194 454 q 194 447 195 443 l 202 413 q 205 399 205 379 l 205 369 l 204 346 l 203 312 q 203 266 201 246 q 199 227 198 213 l 199 202 l 200 177 l 199 140 l 199 118 l 199 102 l 199 97 l 201 79 q 203 63 205 58 q 207 54 222 39 q 228 33 228 23 q 228 11 219 6 q 210 1 205 1 l 146 0 l 76 0 l 60 0 q 41 0 34 2 q 27 5 23 10 q 15 20 19 26 l 35 50 l 36 74 l 37 110 l 37 117 l 36 154 l 38 243 l 39 278 l 39 289 l 40 296 l 39 331 l 40 340 l 41 373 l 39 415 l 39 514 q 40 522 32 546 q 24 569 24 575 q 24 586 46 588 q 67 590 88 590 l 120 590 l 131 590 q 159 590 168 587 q 176 584 183 571 l 187 560 q 189 550 195 548 l 204 556 l 206 558 l 214 563 l 231 581 q 239 589 267 593 q 297 597 316 580 q 335 563 335 529 q 335 521 334 516 q 330 498 326 489 q 305 442 271 432 q 259 429 250 429 q 226 429 213 458 l 209 469 q 207 474 195 474 z"},"2":{"x_min":0,"x_max":478,"ha":478,"o":"m 23 50 q 28 74 44 111 q 59 148 86 185 l 98 201 l 129 241 l 148 267 q 191 325 208 362 q 226 400 236 454 l 240 481 q 244 509 244 537 q 244 552 242 571 q 240 590 238 605 q 236 620 231 634 q 221 657 208 668 q 196 680 186 680 q 170 680 163 666 q 156 651 156 635 q 156 625 158 614 q 159 603 159 598 q 159 575 138 547 q 131 539 129 537 q 124 533 117 529 q 99 520 82 520 q 40 520 26 569 q 24 575 24 588 q 24 619 45 653 q 63 683 88 698 q 112 713 152 720 q 191 726 221 726 q 284 726 330 704 q 376 681 399 640 l 401 635 l 408 621 q 421 589 426 568 q 432 546 432 521 l 431 483 q 423 413 397 372 q 371 331 304 287 l 282 274 l 264 264 l 239 251 l 196 226 q 172 207 165 196 q 158 186 158 174 q 158 165 165 160 q 172 155 181 158 q 196 162 221 177 l 234 186 q 242 191 267 191 q 285 191 303 183 q 311 179 332 168 q 343 162 351 162 q 364 162 384 186 q 393 195 408 199 q 421 202 432 194 q 442 187 442 175 l 440 158 l 432 134 l 415 74 q 393 -10 334 -10 q 327 -10 316 -8 q 306 -6 294 -3 l 277 3 l 257 10 q 253 11 240 14 q 227 17 213 18 l 198 19 q 178 19 167 19 q 156 19 151 19 q 123 19 113 14 q 100 5 90 -1 l 71 -9 q 66 -11 56 -11 q 21 -11 21 20 q 21 40 23 50 z"},"9":{"x_min":0,"x_max":474,"ha":474,"o":"m 28 452 l 32 490 l 34 498 l 40 529 l 46 567 q 47 577 55 594 q 63 610 85 640 q 108 675 148 698 q 199 728 239 728 q 244 728 250 728 q 259 726 263 726 l 279 723 q 308 717 323 708 q 338 698 364 670 q 386 646 394 632 q 403 619 413 591 l 421 567 l 429 544 q 440 508 442 477 q 444 446 444 419 l 444 351 l 444 340 l 443 302 q 443 268 437 237 q 431 206 410 156 q 383 95 349 61 q 278 -10 196 -10 q 172 -10 148 -4 q 109 5 87 28 q 65 52 65 78 q 65 94 73 105 q 94 132 115 132 q 126 132 137 126 q 148 121 155 112 q 162 103 173 76 q 184 48 202 48 q 211 48 225 54 l 243 62 q 263 74 268 111 l 269 129 q 269 190 230 190 q 225 190 215 188 l 190 176 q 180 171 170 171 q 142 171 109 197 q 94 209 80 228 q 66 246 52 272 q 42 293 37 311 q 32 329 32 355 l 30 386 l 29 404 z m 224 249 q 229 246 234 246 q 240 246 244 250 q 250 254 250 277 q 250 292 250 303 q 250 311 250 324 q 250 337 251 347 l 256 390 l 251 428 l 254 465 l 253 492 l 253 502 l 254 528 l 254 551 l 254 557 l 253 598 l 252 615 q 248 639 246 648 q 243 657 239 661 q 235 666 227 666 q 218 666 212 659 q 206 648 206 636 l 207 621 l 209 591 l 212 531 l 212 527 l 211 510 l 210 486 l 209 461 l 209 445 l 209 385 l 209 363 l 209 332 l 208 322 l 206 289 l 209 275 q 216 254 224 249 z"}," ":{"x_min":0,"x_max":290,"ha":290,"o":""},"I":{"x_min":0,"x_max":252,"ha":252,"o":"m 14 23 q 12 31 17 42 q 22 53 36 67 q 39 70 39 90 q 39 110 37 124 l 35 145 q 35 162 34 178 q 34 195 34 212 q 34 218 34 222 l 34 226 l 36 257 l 36 276 l 37 292 l 36 312 l 36 328 l 38 357 l 37 386 l 36 399 l 36 417 q 36 421 38 450 q 40 478 40 534 l 40 541 l 40 580 l 40 589 l 42 625 q 42 652 40 661 q 39 670 31 686 l 25 697 q 17 710 38 721 q 47 724 69 724 l 100 721 l 130 721 l 202 723 l 207 723 q 220 725 230 717 q 240 709 238 698 q 235 686 230 676 q 226 667 214 650 q 213 649 213 640 q 213 630 213 616 l 214 595 l 217 564 l 217 560 l 215 512 l 215 508 l 217 458 l 211 262 l 211 196 l 212 158 l 213 132 l 213 127 l 212 99 q 212 76 215 67 q 218 58 234 39 q 237 34 237 27 q 237 19 232 12 q 226 4 214 2 q 201 0 190 0 l 181 0 l 136 3 l 83 3 q 70 3 65 3 q 35 3 26 6 q 17 10 14 23 z"},"H":{"x_min":0,"x_max":502,"ha":502,"o":"m 22 15 q 19 21 22 30 q 25 40 37 56 q 38 57 38 72 q 38 87 39 105 l 39 140 l 39 164 l 36 338 l 38 395 l 40 428 l 40 433 l 38 467 l 38 505 l 39 524 l 40 543 l 41 553 l 43 581 l 43 586 l 45 619 l 45 657 l 33 674 l 29 680 q 22 698 22 702 q 22 716 51 722 q 55 723 94 722 q 134 721 168 721 q 187 721 206 721 q 224 721 227 721 l 233 719 q 239 711 239 707 q 239 703 223 674 q 220 668 220 650 q 220 638 220 630 l 221 592 l 221 587 l 222 557 l 223 543 l 223 511 l 222 478 q 222 457 230 448 q 237 440 247 440 q 259 440 266 451 q 274 462 274 486 l 273 499 l 272 514 l 271 530 l 274 575 l 273 621 q 273 632 273 636 q 273 659 271 664 q 269 668 256 680 q 251 685 252 698 q 252 712 262 717 q 273 722 303 722 l 343 720 q 374 720 396 719 q 418 718 421 718 l 458 720 q 477 720 477 696 q 476 686 470 677 q 463 668 453 659 q 452 658 452 650 q 453 642 457 602 l 459 554 l 460 536 l 462 505 l 460 439 l 460 435 l 460 395 l 460 391 l 459 352 l 459 338 l 459 310 l 460 264 l 461 224 l 459 170 l 458 146 l 458 114 l 458 60 l 472 48 q 479 43 479 31 q 479 28 477 20 q 471 0 443 0 l 439 0 l 385 4 q 366 4 352 4 q 337 4 326 3 q 316 2 306 2 q 296 1 293 1 q 279 1 266 5 q 253 9 253 27 q 253 31 257 41 l 270 56 q 272 58 272 71 q 273 84 273 96 l 273 109 l 273 228 l 273 242 l 274 279 l 274 284 l 272 330 q 272 364 268 376 q 265 388 254 392 q 239 397 232 386 q 226 376 224 357 l 223 348 l 223 344 l 224 292 l 222 236 l 225 181 l 223 144 l 222 106 q 222 76 223 71 q 224 65 237 43 l 240 35 q 240 16 232 8 q 225 1 202 1 q 182 1 169 3 l 108 4 l 88 3 l 50 2 q 27 2 22 15 z"},"4":{"x_min":0,"x_max":475,"ha":475,"o":"m 5 257 q 7 275 15 289 q 20 298 35 317 l 44 329 l 60 352 l 69 365 l 84 387 l 102 413 l 109 423 l 115 433 l 131 459 l 134 464 l 154 492 l 158 499 l 174 526 l 186 547 l 194 560 l 236 623 l 254 655 l 270 689 l 284 722 q 295 737 316 737 q 344 740 358 720 q 372 701 372 650 l 372 629 l 371 626 l 369 575 l 368 554 l 368 545 l 369 531 l 370 515 l 366 486 l 370 431 l 373 378 l 372 364 l 372 325 q 372 291 387 284 l 408 282 q 424 280 429 275 q 434 270 434 255 l 434 249 l 434 235 q 434 205 407 205 q 397 205 391 206 q 382 206 376 192 q 371 179 371 148 l 372 111 q 372 76 375 72 l 398 60 l 412 51 q 421 43 421 32 q 421 16 406 7 q 404 6 392 4 q 380 1 352 1 l 347 1 l 305 4 l 257 5 l 223 2 l 219 2 l 190 0 q 159 0 148 3 q 138 6 132 20 q 130 28 130 31 q 130 47 137 51 l 165 64 q 193 76 197 124 q 197 181 188 199 q 178 217 145 217 l 131 217 l 115 215 l 103 214 l 75 211 l 68 211 l 47 209 q 9 209 5 245 z m 209 329 l 207 364 l 204 393 q 202 398 200 400 q 193 407 183 407 q 178 407 172 404 q 165 400 157 391 q 149 382 140 365 l 137 360 l 122 332 q 113 316 111 308 q 109 301 111 296 q 120 278 151 278 q 188 278 198 288 q 209 297 209 329 z"},"D":{"x_min":0,"x_max":487,"ha":487,"o":"m 7 690 q 4 720 39 720 l 63 720 l 69 720 l 100 718 l 120 717 l 172 720 l 193 720 q 248 720 273 714 q 298 707 340 682 q 362 669 382 644 q 403 620 421 584 q 430 567 438 544 q 445 522 451 490 l 455 470 l 456 462 l 460 422 l 464 380 l 465 373 l 461 294 l 458 263 l 457 255 q 457 245 454 234 q 451 224 449 218 l 448 214 l 436 183 q 433 177 430 166 q 426 154 423 144 l 403 109 l 385 78 l 383 74 l 366 54 q 334 24 306 12 q 277 0 230 0 l 57 0 l 35 0 l 31 0 l 21 3 q 6 12 6 26 q 6 42 27 59 q 34 65 36 79 q 38 93 38 141 l 38 156 l 39 186 l 38 192 l 36 231 l 37 277 l 37 295 l 37 334 l 37 349 l 36 393 l 36 414 l 36 451 l 36 473 l 37 511 l 36 549 q 36 638 32 654 q 23 663 16 671 q 8 679 7 690 z m 213 558 l 213 536 l 212 518 l 213 478 l 216 445 l 216 439 l 216 400 l 213 362 l 215 339 l 216 318 l 216 277 l 214 237 l 215 217 l 216 187 q 216 168 216 160 q 216 144 215 128 q 214 113 211 94 l 209 84 q 209 64 212 58 q 219 45 235 50 q 242 54 248 62 q 253 70 258 88 l 262 112 l 264 158 l 265 164 l 265 183 l 265 216 l 266 240 l 265 250 l 264 311 l 265 341 l 265 355 l 266 375 l 265 394 l 265 424 l 265 434 l 264 465 l 265 475 l 266 514 l 265 529 l 262 553 l 260 570 l 259 589 q 259 608 258 620 q 256 632 252 639 q 245 658 237 666 q 229 674 219 674 q 206 672 204 659 l 205 638 l 211 598 q 214 566 213 558 z"},"0":{"x_min":0,"x_max":474,"ha":474,"o":"m 28 327 l 28 338 l 28 373 l 29 407 l 29 419 l 30 437 q 30 469 34 492 q 35 500 43 528 q 51 557 58 579 q 66 601 72 613 q 96 662 118 684 q 141 705 180 720 q 219 735 247 735 q 255 734 259 734 q 326 726 369 671 l 376 661 l 390 638 q 412 602 420 581 q 428 560 432 526 l 437 492 l 439 476 q 445 419 445 374 l 445 363 l 445 323 l 445 292 l 445 280 q 445 268 440 245 l 437 235 l 430 206 l 428 200 l 423 172 q 422 159 409 128 q 383 64 334 28 q 285 -8 231 -8 q 223 -8 213 -6 q 203 -5 198 -4 q 161 5 137 24 q 113 44 85 91 q 62 130 50 177 q 37 224 30 298 z m 214 623 q 217 616 220 605 q 222 594 222 591 l 221 578 l 221 558 l 220 505 l 220 474 l 217 352 l 216 305 l 215 221 l 215 164 l 215 133 l 217 112 l 221 97 l 222 94 l 225 69 l 234 52 q 240 46 248 46 q 255 46 258 48 q 270 56 270 76 l 268 89 q 260 108 258 122 q 255 136 255 157 l 257 193 l 257 197 q 257 245 256 282 q 255 318 254 353 l 261 508 l 261 585 l 259 625 q 257 647 252 658 q 246 668 237 672 q 228 677 223 677 q 212 677 207 668 l 204 653 z"},"F":{"x_min":0,"x_max":375,"ha":375,"o":"m 18 33 l 34 51 q 37 54 39 74 l 36 128 l 37 182 l 37 236 l 36 250 l 35 267 l 36 299 l 36 308 l 36 331 l 36 338 l 35 372 l 35 452 l 36 502 l 37 533 l 37 537 l 35 591 l 35 605 l 35 615 l 36 635 l 37 640 q 38 645 32 657 q 26 669 18 684 q 15 691 16 698 q 20 712 41 716 q 62 720 129 720 l 248 720 q 255 720 259 721 q 263 722 288 730 q 301 732 307 730 q 327 725 333 695 l 334 691 l 338 669 l 347 637 q 354 617 354 602 q 354 577 333 569 q 322 565 312 565 q 280 565 273 623 q 272 628 269 633 q 265 638 254 649 q 248 655 238 660 q 221 666 221 646 l 222 609 l 221 566 l 220 554 l 221 486 q 221 460 226 452 q 232 443 242 448 l 253 467 q 263 486 284 486 q 288 486 303 484 q 318 481 328 461 l 335 434 l 337 428 l 344 407 l 354 376 q 358 365 358 355 q 358 328 327 322 q 323 321 315 321 q 302 321 294 330 q 286 340 279 364 q 276 377 261 387 q 256 391 249 391 q 236 391 229 378 q 227 372 225 357 q 223 342 223 317 l 224 296 l 224 266 l 222 215 l 225 177 l 225 139 l 226 101 q 226 80 228 71 q 229 62 243 47 l 256 31 q 259 26 259 21 q 259 7 244 0 q 237 -3 199 -3 l 154 -1 l 109 0 l 79 -2 l 50 -3 l 30 -1 q 15 1 15 19 q 15 25 18 33 z"},"`":{"x_min":0,"x_max":244,"ha":244,"o":"m 108 765 l 201 692 l 207 684 q 214 674 214 664 q 214 646 196 640 q 188 637 178 636 q 168 635 146 635 l 134 636 q 113 638 105 645 l 12 719 l -7 734 q -17 741 -17 753 q -17 767 -3 776 q 2 779 10 782 q 19 786 34 786 q 40 786 49 785 q 58 784 70 782 q 83 781 95 774 z"},"k":{"x_min":0,"x_max":448,"ha":448,"o":"m 14 685 q 11 691 11 697 q 11 714 32 722 l 41 723 l 84 721 l 126 721 q 169 721 182 713 q 194 705 194 672 q 194 664 194 656 q 192 644 192 637 l 196 602 l 191 569 l 192 543 l 194 526 l 195 511 q 196 506 196 495 q 196 489 194 479 l 190 448 q 192 445 193 444 q 197 439 201 438 q 214 434 228 444 q 243 454 253 479 l 258 494 l 266 530 q 270 549 274 558 q 277 568 282 576 q 302 609 326 614 q 349 618 360 618 q 396 618 414 575 q 421 557 421 539 q 421 523 413 509 q 395 473 364 473 q 356 473 347 476 q 325 484 321 480 l 318 475 l 335 444 l 336 441 l 342 423 l 353 403 q 355 398 360 386 q 364 375 366 367 l 373 345 l 377 328 l 386 288 l 389 274 l 392 249 l 395 223 l 397 209 l 397 200 l 398 158 l 403 105 q 405 92 406 74 q 407 55 407 54 l 417 38 l 423 26 q 427 17 420 8 q 412 0 399 0 l 377 0 l 357 2 l 345 3 l 317 2 l 297 0 l 289 -1 q 269 -3 260 6 q 250 14 245 42 l 241 86 l 235 130 l 237 185 q 238 189 236 204 q 234 220 232 242 l 224 299 l 223 303 l 216 326 q 215 330 212 336 q 210 340 206 348 q 202 355 194 347 q 190 343 190 339 q 190 335 195 312 l 199 282 l 199 276 l 199 229 l 203 174 l 202 120 l 203 86 q 203 64 209 54 l 222 41 l 228 33 q 231 28 231 23 q 231 5 212 0 q 202 -2 189 -2 q 179 -2 172 -1 l 132 0 l 98 -2 l 94 -2 l 64 -3 q 27 -3 23 12 q 21 21 23 26 q 25 32 36 45 q 39 48 43 63 l 37 185 l 38 239 l 38 290 l 37 316 l 36 342 l 36 346 l 37 378 l 36 414 q 36 422 35 435 q 34 448 35 451 l 36 462 l 38 484 q 38 485 38 495 q 37 505 36 519 l 35 537 l 35 553 l 35 558 l 35 586 l 35 594 l 34 618 l 34 624 l 35 650 q 35 667 32 672 z"},"u":{"x_min":0,"x_max":445,"ha":445,"o":"m 22 572 q 26 586 45 592 l 85 590 q 96 590 101 590 q 107 590 115 591 q 123 592 127 592 q 142 595 153 595 q 174 595 183 584 q 192 572 197 538 l 199 520 l 199 492 l 199 488 l 200 464 l 201 441 l 201 432 l 201 422 l 199 368 l 199 339 l 199 319 l 199 312 l 202 218 l 203 168 q 203 131 203 122 q 203 114 206 106 q 209 97 215 91 q 221 85 230 85 q 244 85 249 97 q 251 103 251 109 q 251 119 248 134 q 244 150 243 164 q 242 178 242 211 l 243 254 l 243 337 l 242 363 l 242 377 l 243 431 l 246 486 q 246 512 246 520 q 246 535 244 540 q 242 545 229 554 q 222 559 226 575 q 230 586 240 589 q 250 592 280 592 l 319 593 l 340 595 l 356 597 l 370 597 q 392 594 399 579 q 406 564 406 524 l 406 471 l 406 457 l 408 417 q 409 409 408 390 q 406 371 406 358 l 405 320 l 405 316 l 407 288 l 408 280 l 408 258 l 408 218 l 408 193 l 408 163 l 408 126 l 408 103 l 409 69 l 409 62 q 408 59 412 52 q 415 45 420 36 l 425 25 q 429 16 423 8 q 417 -1 407 -1 l 382 -2 l 354 -1 l 350 -1 l 318 1 l 294 -2 q 279 -4 271 2 l 255 22 q 243 37 237 37 q 232 37 218 26 l 207 16 l 201 11 q 188 -2 156 -2 q 141 -2 128 1 q 114 4 98 12 q 69 26 53 56 q 37 86 37 139 l 37 149 l 36 228 l 35 235 l 34 267 l 34 306 l 34 311 l 36 345 l 36 359 l 36 384 l 36 412 l 36 425 l 39 462 l 40 501 q 40 509 40 513 q 40 531 38 536 q 36 541 25 553 q 18 559 22 572 z"},"U":{"x_min":0,"x_max":421,"ha":421,"o":"m 14 689 q 4 723 52 723 l 84 722 l 113 721 l 150 721 l 159 722 l 186 724 q 235 724 239 705 q 239 693 234 686 q 228 680 218 673 q 214 669 214 645 q 214 639 214 635 l 214 630 l 217 596 l 218 538 l 218 514 l 219 479 l 218 421 l 218 394 l 220 380 l 221 367 l 219 334 l 219 330 l 221 302 l 221 298 l 219 268 l 221 236 l 223 217 l 224 204 l 225 173 l 223 146 l 223 141 q 226 131 230 123 q 244 100 271 103 q 291 103 303 124 q 315 144 315 185 l 315 191 l 314 231 l 314 240 l 315 276 l 313 318 l 313 322 l 316 361 l 315 401 l 315 448 l 315 558 q 315 613 312 632 q 309 651 295 668 l 276 693 q 272 699 278 708 q 283 718 293 721 q 303 724 316 724 q 324 724 328 723 l 354 722 q 409 722 409 704 q 409 698 406 687 l 387 662 q 384 658 382 649 q 381 640 381 616 l 381 568 l 380 545 l 381 520 l 381 502 l 381 488 l 382 479 l 384 457 l 384 390 l 384 364 l 385 323 l 387 256 l 388 188 q 388 127 384 104 q 380 80 365 57 q 341 22 312 7 q 282 -8 223 -8 q 209 -8 202 -8 q 194 -8 186 -8 q 176 -6 171 -6 q 61 10 43 101 l 41 116 l 42 148 l 42 156 l 41 180 l 40 199 l 37 235 q 37 246 38 276 q 39 305 39 320 l 41 345 l 37 390 l 37 433 l 37 459 l 37 477 l 37 481 l 35 515 l 34 521 l 35 552 l 35 560 l 36 590 l 36 629 q 36 648 35 656 q 34 661 32 666 z"},"o":{"x_min":0,"x_max":459,"ha":459,"o":"m 22 279 l 22 305 q 22 362 30 400 q 38 438 55 473 q 83 531 122 561 q 170 599 226 599 q 271 599 315 574 q 354 552 383 507 q 395 489 405 462 q 415 436 424 389 q 434 342 434 280 q 434 237 431 214 q 428 190 421 167 q 404 110 374 72 q 343 33 303 14 q 263 -5 228 -5 q 186 -5 164 2 q 142 9 116 30 q 90 52 76 75 q 61 98 52 122 q 43 146 33 194 q 30 209 26 233 q 22 257 22 279 z m 203 489 l 205 482 q 207 475 207 446 q 207 417 207 377 q 207 360 207 341 q 207 322 208 302 l 210 265 q 205 231 206 229 l 207 194 l 207 129 l 207 119 l 209 99 q 213 67 224 53 q 236 39 251 43 q 266 46 264 61 l 261 73 q 250 92 246 107 q 241 122 241 148 q 241 174 243 190 q 245 207 246 217 l 247 222 l 248 245 l 249 268 l 249 275 l 248 301 l 250 340 l 250 347 l 249 374 l 249 390 l 249 414 l 250 432 q 250 493 245 517 q 240 541 226 548 q 218 551 212 551 q 201 551 196 544 q 192 538 192 532 q 192 523 196 512 z"},"N":{"x_min":0,"x_max":414,"ha":414,"o":"m 4 16 q 1 25 6 36 q 10 47 27 65 q 30 68 32 75 q 33 82 33 99 l 36 157 l 36 169 l 37 213 l 37 236 l 37 259 l 37 292 l 36 305 l 38 342 l 38 533 l 37 586 l 36 592 l 38 650 q 39 667 34 676 q 30 685 15 696 q 9 700 11 707 q 14 715 19 719 q 29 727 53 727 l 57 727 l 81 726 l 106 725 l 110 725 q 122 725 132 714 q 146 699 161 664 l 166 652 l 178 627 l 186 610 l 194 594 l 202 579 l 211 563 l 220 547 l 229 531 l 240 514 l 248 500 l 264 474 l 267 469 q 274 457 277 450 q 280 442 282 430 l 282 422 l 286 418 q 303 414 308 429 q 314 444 314 465 q 314 474 314 479 q 313 485 313 488 l 312 499 q 308 527 303 540 q 298 552 280 577 l 270 594 q 256 615 250 627 q 244 639 242 648 q 241 658 241 668 q 241 696 260 715 q 279 734 307 734 q 313 733 316 733 q 345 728 362 705 q 378 682 386 628 q 388 619 388 609 q 388 599 388 589 q 388 558 385 528 q 382 498 380 479 l 373 410 l 371 339 l 371 267 l 371 195 q 371 149 370 126 q 369 102 368 82 q 368 64 374 56 q 376 53 387 43 q 392 38 391 23 q 391 9 377 4 q 363 -2 329 -2 q 321 -1 314 5 q 306 11 296 27 l 277 59 l 232 125 l 208 159 l 186 193 l 171 217 l 165 227 l 144 254 q 134 265 126 286 q 119 307 117 312 q 115 316 112 317 q 109 318 107 315 q 105 311 105 301 q 105 296 105 292 q 107 284 107 280 l 107 241 l 106 225 l 105 204 l 108 153 l 108 115 q 108 105 117 88 q 126 72 145 52 q 164 33 158 17 q 152 -1 103 -1 l 62 0 q 27 0 18 2 q 9 5 4 16 z"},"G":{"x_min":0,"x_max":488,"ha":488,"o":"m 25 350 q 25 442 32 486 q 39 530 63 579 q 98 651 147 687 q 196 723 253 723 q 278 723 293 720 l 304 717 l 311 715 q 319 713 326 715 q 333 717 338 719 q 339 720 358 730 q 366 734 372 734 q 383 734 392 726 q 402 717 403 711 l 404 708 l 411 660 l 422 611 q 433 575 433 560 q 433 547 422 536 q 412 525 395 525 q 375 525 363 542 q 360 547 356 556 q 352 564 349 575 q 343 597 337 608 q 331 618 312 634 l 299 646 q 277 662 261 662 q 235 662 224 624 q 222 616 221 603 q 220 590 220 562 l 220 415 l 220 395 l 220 367 q 220 347 220 325 q 220 303 221 279 l 223 252 l 224 237 q 225 233 225 223 q 225 218 225 213 q 223 205 223 200 l 222 186 l 220 163 l 220 125 l 223 109 q 232 62 253 54 q 259 52 262 52 q 268 52 273 55 q 283 61 283 71 q 283 86 282 94 q 281 101 274 127 q 274 131 274 140 q 274 148 275 161 l 276 176 l 277 194 l 277 209 l 277 226 l 277 234 l 275 258 l 275 266 l 275 295 l 276 326 l 276 331 q 276 338 278 348 q 279 358 279 362 q 279 373 272 378 q 266 382 261 385 q 248 393 244 400 q 240 406 240 412 q 240 433 261 436 l 289 438 l 297 438 l 327 437 l 373 438 l 387 438 l 418 438 l 457 436 q 475 436 475 412 q 475 408 473 402 q 471 396 460 384 q 449 372 449 362 q 450 346 450 328 l 450 255 l 449 197 l 448 181 l 448 175 l 450 143 l 449 106 q 449 98 452 88 q 454 79 464 58 l 470 46 q 473 40 473 31 q 473 27 471 19 q 465 0 444 0 q 440 0 434 2 l 416 13 q 394 33 390 39 q 388 41 385 40 q 380 39 365 32 l 340 19 q 319 8 302 2 q 284 -4 265 -4 q 248 -4 234 -3 q 221 -2 207 2 q 167 14 142 36 q 118 58 81 119 l 63 154 q 42 200 34 234 q 26 268 26 323 z"},"q":{"x_min":0,"x_max":447,"ha":447,"o":"m 22 276 q 22 383 40 443 q 54 487 68 510 q 81 534 103 553 q 150 593 206 593 q 221 593 238 590 q 267 583 278 578 q 289 573 301 561 q 305 557 317 556 q 325 555 330 559 q 336 563 347 579 l 353 588 q 362 602 387 602 q 402 602 412 594 q 422 586 424 577 q 426 568 426 560 q 426 550 414 521 q 411 515 410 495 q 408 475 408 423 l 408 375 l 410 331 l 411 297 l 411 292 l 409 244 l 409 236 l 410 198 l 412 148 l 414 107 l 412 13 l 412 -1 l 412 -35 l 413 -80 q 415 -87 429 -104 q 435 -110 433 -118 q 431 -130 422 -133 q 413 -136 400 -136 q 393 -136 384 -135 q 375 -134 369 -134 l 316 -132 l 277 -134 q 264 -131 261 -115 q 258 -99 258 -50 l 258 -20 l 257 -8 l 256 5 l 255 24 q 246 27 226 16 l 211 6 l 208 4 q 200 -1 185 -1 q 170 -1 150 4 q 131 8 107 24 q 83 41 68 64 q 54 88 44 127 l 35 168 l 29 195 l 26 207 q 24 214 23 228 q 22 241 22 276 z m 203 195 l 203 191 l 204 182 l 206 156 l 209 121 q 211 104 216 94 q 221 85 227 81 q 234 77 242 80 q 251 84 253 92 q 254 98 253 108 q 252 117 252 125 l 251 156 l 251 220 l 251 239 l 250 267 l 250 290 l 250 392 l 250 412 l 252 443 q 252 454 253 462 q 254 471 255 479 l 260 510 q 260 522 248 527 q 240 530 231 527 q 222 524 216 514 q 211 505 208 482 l 203 449 l 203 444 l 202 393 l 202 342 l 203 291 z"},"d":{"x_min":0,"x_max":455,"ha":455,"o":"m 25 253 l 25 344 l 26 373 l 27 391 l 28 411 q 32 446 38 468 q 44 489 58 518 q 95 590 154 599 q 170 601 176 601 q 195 601 211 591 l 223 583 l 241 572 q 250 568 252 576 l 256 597 l 256 601 l 256 624 l 257 651 q 260 670 244 691 l 235 702 q 229 706 234 711 q 240 719 251 722 q 262 725 288 725 l 328 725 l 352 726 l 368 727 l 373 727 q 398 725 406 718 q 415 711 418 689 l 416 657 q 417 643 418 620 q 420 597 420 572 l 417 529 l 419 493 l 419 487 l 420 456 l 420 427 l 420 419 l 415 375 l 417 333 l 417 312 l 418 289 l 414 110 q 414 77 416 70 q 417 62 429 34 q 432 26 432 20 q 432 1 417 -1 l 387 -1 l 326 -1 l 315 -2 q 309 -3 298 -3 q 271 -3 259 21 q 253 32 249 32 q 245 32 235 22 l 219 11 q 208 4 193 0 q 178 -3 156 -3 q 111 -3 78 37 q 41 81 32 161 l 29 191 l 28 207 l 26 229 z m 208 197 l 208 186 l 210 145 l 212 123 q 215 99 217 93 q 219 86 224 81 q 234 71 238 78 q 242 86 244 94 l 246 112 l 246 122 l 246 169 l 246 332 l 246 370 l 246 387 l 247 401 l 247 424 l 249 453 l 249 460 q 252 484 252 494 q 252 505 246 510 q 241 515 233 515 q 224 515 218 506 q 212 498 212 487 l 212 477 l 211 442 l 210 408 l 210 397 l 207 354 l 208 316 l 208 302 l 207 249 l 207 235 z"},"1":{"x_min":0,"x_max":481,"ha":481,"o":"m 41 579 q 44 586 50 591 q 56 596 73 603 l 85 607 q 113 616 128 624 q 143 631 163 646 l 185 661 l 199 672 l 221 689 l 235 700 q 255 718 264 724 q 272 729 282 732 q 292 735 300 735 q 323 735 323 697 l 317 629 l 318 577 l 318 565 l 317 523 l 318 518 l 320 471 l 320 411 l 323 382 l 321 351 l 323 319 q 323 290 322 261 q 322 232 322 203 q 322 185 322 175 l 322 169 l 324 127 q 324 86 326 80 q 328 75 347 62 q 362 53 366 46 q 371 38 371 30 q 371 12 354 6 l 337 2 l 310 2 l 279 0 l 192 0 l 154 3 l 120 6 l 115 11 q 106 25 106 32 q 106 40 136 60 q 148 69 154 83 q 161 97 161 121 q 161 138 157 168 q 153 197 153 234 q 153 251 153 260 l 153 272 l 154 303 l 154 346 l 154 368 l 153 389 q 153 434 152 464 q 151 493 150 520 l 147 529 q 142 537 136 539 q 130 541 107 541 l 100 541 l 75 541 l 54 543 q 38 546 38 566 q 38 571 41 579 z"},"5":{"x_min":0,"x_max":474,"ha":474,"o":"m 33 302 q 33 311 34 318 q 35 326 42 353 l 46 367 l 55 402 l 65 452 l 67 459 l 76 499 q 80 518 86 542 q 91 566 91 598 l 92 629 l 92 639 l 92 680 q 92 700 104 710 q 116 720 137 720 q 144 720 148 719 q 157 718 167 714 q 177 711 201 700 l 246 694 l 286 690 l 292 690 l 299 690 q 323 692 329 696 q 335 700 345 720 q 348 728 365 731 q 379 733 388 725 q 397 717 397 702 q 397 696 396 693 l 391 664 l 390 660 q 384 637 382 628 q 381 620 377 596 l 375 581 q 375 569 366 560 q 358 550 348 546 q 339 542 317 542 q 309 542 299 543 q 289 544 283 544 l 270 546 l 260 547 l 232 552 l 194 556 q 188 557 178 557 q 158 557 150 547 q 142 537 137 507 q 136 498 136 494 q 136 490 138 484 q 144 457 168 457 q 180 457 188 458 l 219 460 l 237 460 l 255 460 q 291 460 320 447 q 348 434 377 403 q 428 349 440 268 q 441 256 442 246 q 444 235 444 222 q 444 179 422 132 q 392 66 334 28 q 277 -10 197 -10 q 184 -10 178 -10 q 171 -10 163 -9 q 155 -8 151 -8 q 107 -3 88 8 q 70 19 58 46 l 53 60 q 51 66 51 77 q 51 102 70 120 q 90 137 121 137 q 139 137 157 126 q 175 114 201 84 q 210 72 235 66 q 245 64 251 64 q 276 64 297 81 q 318 98 327 128 q 332 142 332 161 q 332 181 323 201 q 307 238 259 260 q 246 265 234 268 q 222 271 204 273 l 187 274 l 164 276 q 132 276 124 275 q 117 274 87 262 q 82 260 77 259 q 72 258 67 258 q 33 258 33 302 z"}}}
